M48
; DRILL file {KiCad (6.0.0-0)} date Thursday, January 20, 2022 at 10:41:42 AM
; FORMAT={-:-/ absolute / inch / decimal}
; #@! TF.CreationDate,2022-01-20T10:41:42-06:00
; #@! TF.GenerationSoftware,Kicad,Pcbnew,(6.0.0-0)
; #@! TF.FileFunction,Plated,1,2,PTH
FMAT,2
INCH
; #@! TA.AperFunction,Plated,PTH,ComponentDrill
T1C0.0394
; #@! TA.AperFunction,Plated,PTH,ComponentDrill
T2C0.1260
%
G90
G05
T1
X4.7677Y-3.2199
X4.7677Y-3.3199
X4.8677Y-3.2199
X4.8677Y-3.3199
X4.9677Y-3.2199
X4.9677Y-3.3199
X5.0677Y-3.2199
X5.0677Y-3.3199
X5.1677Y-3.2199
X5.1677Y-3.3199
X5.2677Y-3.2199
X5.2677Y-3.3199
X5.3677Y-3.2199
X5.3677Y-3.3199
X5.4677Y-3.2199
X5.4677Y-3.3199
X5.5677Y-3.2199
X5.5677Y-3.3199
X5.6677Y-3.2199
X5.6677Y-3.3199
X5.7677Y-3.2199
X5.7677Y-3.3199
X5.8677Y-3.2199
X5.8677Y-3.3199
X5.9677Y-3.2199
X5.9677Y-3.3199
X6.0677Y-3.2199
X6.0677Y-3.3199
X6.1677Y-3.2199
X6.1677Y-3.3199
X6.2677Y-3.2199
X6.2677Y-3.3199
T2
X3.7461Y-2.4941
X7.2894Y-2.4941
T0
M30
