G04 #@! TF.GenerationSoftware,KiCad,Pcbnew,(6.0.0-0)*
G04 #@! TF.CreationDate,2022-01-20T10:41:43-06:00*
G04 #@! TF.ProjectId,nand7400-plaque,6e616e64-3734-4303-902d-706c61717565,rev?*
G04 #@! TF.SameCoordinates,Original*
G04 #@! TF.FileFunction,Legend,Top*
G04 #@! TF.FilePolarity,Positive*
%FSLAX46Y46*%
G04 Gerber Fmt 4.6, Leading zero omitted, Abs format (unit mm)*
G04 Created by KiCad (PCBNEW (6.0.0-0)) date 2022-01-20 10:41:43*
%MOMM*%
%LPD*%
G01*
G04 APERTURE LIST*
%ADD10C,0.120000*%
G04 APERTURE END LIST*
D10*
G04 #@! TO.C,REF\u002A\u002A*
X154500000Y-94425000D02*
X153740000Y-94425000D01*
X126560000Y-85367929D02*
X126560000Y-85765000D01*
X159580000Y-94425000D02*
X158820000Y-94425000D01*
X151960000Y-94425000D02*
X151200000Y-94425000D01*
X126560000Y-88425000D02*
X126560000Y-94425000D01*
X153740000Y-85367929D02*
X153740000Y-85765000D01*
X159520000Y-88425000D02*
X159520000Y-94425000D01*
X129100000Y-88425000D02*
X129100000Y-94425000D01*
X128340000Y-82827929D02*
X128340000Y-83282071D01*
X141040000Y-94425000D02*
X141040000Y-88425000D01*
X159580000Y-82895000D02*
X159580000Y-83282071D01*
X130880000Y-94425000D02*
X130880000Y-88425000D01*
X158920000Y-88425000D02*
X158920000Y-94425000D01*
X148660000Y-94425000D02*
X148660000Y-88425000D01*
X152850000Y-85765000D02*
X152850000Y-88425000D01*
X129100000Y-94425000D02*
X128340000Y-94425000D01*
X129100000Y-82827929D02*
X129100000Y-83282071D01*
X151960000Y-82827929D02*
X151960000Y-83282071D01*
X121480000Y-94425000D02*
X120720000Y-94425000D01*
X158820000Y-94425000D02*
X158820000Y-88425000D01*
X120720000Y-85367929D02*
X120720000Y-85765000D01*
X136720000Y-94425000D02*
X135960000Y-94425000D01*
X146880000Y-88425000D02*
X146880000Y-94425000D01*
X159580000Y-85367929D02*
X159580000Y-85765000D01*
X126560000Y-82827929D02*
X126560000Y-83282071D01*
X123260000Y-94425000D02*
X123260000Y-88425000D01*
X136720000Y-82827929D02*
X136720000Y-83282071D01*
X136720000Y-85367929D02*
X136720000Y-85765000D01*
X149420000Y-88425000D02*
X149420000Y-94425000D01*
X121480000Y-82827929D02*
X121480000Y-83282071D01*
X137610000Y-85765000D02*
X137610000Y-88425000D01*
X126560000Y-94425000D02*
X125800000Y-94425000D01*
X151200000Y-82827929D02*
X151200000Y-83282071D01*
X143580000Y-94425000D02*
X143580000Y-88425000D01*
X120720000Y-94425000D02*
X120720000Y-88425000D01*
X139260000Y-85367929D02*
X139260000Y-85765000D01*
X149420000Y-82827929D02*
X149420000Y-83282071D01*
X141040000Y-82827929D02*
X141040000Y-83282071D01*
X131640000Y-85367929D02*
X131640000Y-85765000D01*
X157930000Y-85765000D02*
X157930000Y-88425000D01*
X124910000Y-85765000D02*
X124910000Y-88425000D01*
X156280000Y-82827929D02*
X156280000Y-83282071D01*
X139260000Y-94425000D02*
X138500000Y-94425000D01*
X135960000Y-82827929D02*
X135960000Y-83282071D01*
X159580000Y-88425000D02*
X159580000Y-94425000D01*
X134180000Y-88425000D02*
X134180000Y-94425000D01*
X141800000Y-85367929D02*
X141800000Y-85765000D01*
X159280000Y-88425000D02*
X159280000Y-94425000D01*
X156280000Y-85367929D02*
X156280000Y-85765000D01*
X144340000Y-94425000D02*
X143580000Y-94425000D01*
X134180000Y-82827929D02*
X134180000Y-83282071D01*
X146120000Y-82827929D02*
X146120000Y-83282071D01*
X139260000Y-82827929D02*
X139260000Y-83282071D01*
X124020000Y-82827929D02*
X124020000Y-83282071D01*
X150310000Y-85765000D02*
X150310000Y-88425000D01*
X154500000Y-88425000D02*
X154500000Y-94425000D01*
X132530000Y-85765000D02*
X132530000Y-88425000D01*
X144340000Y-82827929D02*
X144340000Y-83282071D01*
X123260000Y-85367929D02*
X123260000Y-85765000D01*
X133420000Y-82827929D02*
X133420000Y-83282071D01*
X146120000Y-94425000D02*
X146120000Y-88425000D01*
X129990000Y-85765000D02*
X129990000Y-88425000D01*
X160530000Y-85765000D02*
X119770000Y-85765000D01*
X131640000Y-94425000D02*
X130880000Y-94425000D01*
X141800000Y-94425000D02*
X141040000Y-94425000D01*
X141800000Y-88425000D02*
X141800000Y-94425000D01*
X138500000Y-82827929D02*
X138500000Y-83282071D01*
X140150000Y-85765000D02*
X140150000Y-88425000D01*
X146880000Y-94425000D02*
X146120000Y-94425000D01*
X121480000Y-88425000D02*
X121480000Y-94425000D01*
X123260000Y-82827929D02*
X123260000Y-83282071D01*
X130880000Y-82827929D02*
X130880000Y-83282071D01*
X153740000Y-82827929D02*
X153740000Y-83282071D01*
X151200000Y-94425000D02*
X151200000Y-88425000D01*
X160530000Y-88425000D02*
X160530000Y-85765000D01*
X158820000Y-85367929D02*
X158820000Y-85765000D01*
X135960000Y-85367929D02*
X135960000Y-85765000D01*
X158820000Y-82895000D02*
X158820000Y-83282071D01*
X122370000Y-85765000D02*
X122370000Y-88425000D01*
X160470000Y-80515000D02*
X160470000Y-81785000D01*
X128340000Y-85367929D02*
X128340000Y-85765000D01*
X125800000Y-82827929D02*
X125800000Y-83282071D01*
X147770000Y-85765000D02*
X147770000Y-88425000D01*
X159200000Y-80515000D02*
X160470000Y-80515000D01*
X146880000Y-85367929D02*
X146880000Y-85765000D01*
X119770000Y-88425000D02*
X160530000Y-88425000D01*
X124020000Y-94425000D02*
X123260000Y-94425000D01*
X156280000Y-94425000D02*
X156280000Y-88425000D01*
X148660000Y-82827929D02*
X148660000Y-83282071D01*
X157040000Y-85367929D02*
X157040000Y-85765000D01*
X149420000Y-94425000D02*
X148660000Y-94425000D01*
X125800000Y-85367929D02*
X125800000Y-85765000D01*
X134180000Y-94425000D02*
X133420000Y-94425000D01*
X133420000Y-94425000D02*
X133420000Y-88425000D01*
X149420000Y-85367929D02*
X149420000Y-85765000D01*
X148660000Y-85367929D02*
X148660000Y-85765000D01*
X155390000Y-85765000D02*
X155390000Y-88425000D01*
X124020000Y-88425000D02*
X124020000Y-94425000D01*
X135070000Y-85765000D02*
X135070000Y-88425000D01*
X144340000Y-88425000D02*
X144340000Y-94425000D01*
X131640000Y-88425000D02*
X131640000Y-94425000D01*
X154500000Y-82827929D02*
X154500000Y-83282071D01*
X119770000Y-85765000D02*
X119770000Y-88425000D01*
X151960000Y-85367929D02*
X151960000Y-85765000D01*
X159040000Y-88425000D02*
X159040000Y-94425000D01*
X144340000Y-85367929D02*
X144340000Y-85765000D01*
X120720000Y-82827929D02*
X120720000Y-83282071D01*
X141800000Y-82827929D02*
X141800000Y-83282071D01*
X121480000Y-85367929D02*
X121480000Y-85765000D01*
X134180000Y-85367929D02*
X134180000Y-85765000D01*
X146120000Y-85367929D02*
X146120000Y-85765000D01*
X129100000Y-85367929D02*
X129100000Y-85765000D01*
X157040000Y-82827929D02*
X157040000Y-83282071D01*
X136720000Y-88425000D02*
X136720000Y-94425000D01*
X128340000Y-94425000D02*
X128340000Y-88425000D01*
X157040000Y-94425000D02*
X156280000Y-94425000D01*
X153740000Y-94425000D02*
X153740000Y-88425000D01*
X154500000Y-85367929D02*
X154500000Y-85765000D01*
X125800000Y-94425000D02*
X125800000Y-88425000D01*
X135960000Y-94425000D02*
X135960000Y-88425000D01*
X145230000Y-85765000D02*
X145230000Y-88425000D01*
X151960000Y-88425000D02*
X151960000Y-94425000D01*
X159400000Y-88425000D02*
X159400000Y-94425000D01*
X142690000Y-85765000D02*
X142690000Y-88425000D01*
X139260000Y-88425000D02*
X139260000Y-94425000D01*
X143580000Y-82827929D02*
X143580000Y-83282071D01*
X124020000Y-85367929D02*
X124020000Y-85765000D01*
X157040000Y-88425000D02*
X157040000Y-94425000D01*
X146880000Y-82827929D02*
X146880000Y-83282071D01*
X138500000Y-85367929D02*
X138500000Y-85765000D01*
X138500000Y-94425000D02*
X138500000Y-88425000D01*
X133420000Y-85367929D02*
X133420000Y-85765000D01*
X143580000Y-85367929D02*
X143580000Y-85765000D01*
X151200000Y-85367929D02*
X151200000Y-85765000D01*
X141040000Y-85367929D02*
X141040000Y-85765000D01*
X130880000Y-85367929D02*
X130880000Y-85765000D01*
X159160000Y-88425000D02*
X159160000Y-94425000D01*
X131640000Y-82827929D02*
X131640000Y-83282071D01*
X127450000Y-85765000D02*
X127450000Y-88425000D01*
G04 #@! TD*
M02*
