M48
; DRILL file {KiCad (5.1.9-0-10_14)} date Wednesday, September 15, 2021 at 10:53:12 AM
; FORMAT={-:-/ absolute / inch / decimal}
; #@! TF.CreationDate,2021-09-15T10:53:12-05:00
; #@! TF.GenerationSoftware,Kicad,Pcbnew,(5.1.9-0-10_14)
; #@! TF.FileFunction,Plated,1,2,PTH
FMAT,2
INCH
T1C0.0394
T2C0.1260
%
G90
G05
T1
X4.7331Y-3.2179
X4.7331Y-3.3179
X4.8331Y-3.2179
X4.8331Y-3.3179
X4.9331Y-3.2179
X4.9331Y-3.3179
X5.0331Y-3.2179
X5.0331Y-3.3179
X5.1331Y-3.2179
X5.1331Y-3.3179
X5.2331Y-3.2179
X5.2331Y-3.3179
X5.3331Y-3.2179
X5.3331Y-3.3179
X5.4331Y-3.2179
X5.4331Y-3.3179
X5.5331Y-3.2179
X5.5331Y-3.3179
X5.6331Y-3.2179
X5.6331Y-3.3179
X5.7331Y-3.2179
X5.7331Y-3.3179
X5.8331Y-3.2179
X5.8331Y-3.3179
X5.9331Y-3.2179
X5.9331Y-3.3179
X6.0331Y-3.2179
X6.0331Y-3.3179
X6.1331Y-3.2179
X6.1331Y-3.3179
X6.2331Y-3.2179
X6.2331Y-3.3179
T2
X3.7461Y-2.4941
X7.2894Y-2.4941
T0
M30
