%TF.GenerationSoftware,KiCad,Pcbnew,(5.1.9-0-10_14)*%
%TF.CreationDate,2021-09-09T15:19:59-05:00*%
%TF.ProjectId,nand7400-plaque,6e616e64-3734-4303-902d-706c61717565,rev?*%
%TF.SameCoordinates,Original*%
%TF.FileFunction,Paste,Top*%
%TF.FilePolarity,Positive*%
%FSLAX46Y46*%
G04 Gerber Fmt 4.6, Leading zero omitted, Abs format (unit mm)*
G04 Created by KiCad (PCBNEW (5.1.9-0-10_14)) date 2021-09-09 15:19:59*
%MOMM*%
%LPD*%
G01*
G04 APERTURE LIST*
%ADD10C,0.010000*%
%ADD11C,0.254000*%
%ADD12C,0.100000*%
G04 APERTURE END LIST*
D10*
%TO.C,G\u002A\u002A\u002A*%
G36*
X182978947Y-84555263D02*
G01*
X97421053Y-84555263D01*
X97421053Y-82854270D01*
X131243158Y-82854270D01*
X131278631Y-82984242D01*
X131371086Y-83177337D01*
X131464692Y-83335394D01*
X131508974Y-83357688D01*
X131617147Y-83375961D01*
X131799287Y-83390530D01*
X132065470Y-83401714D01*
X132425773Y-83409829D01*
X132890272Y-83415194D01*
X133469043Y-83418125D01*
X134115089Y-83418947D01*
X136711762Y-83418947D01*
X136988508Y-83088404D01*
X137163456Y-82879448D01*
X162787583Y-82879448D01*
X162966095Y-83149198D01*
X163144607Y-83418947D01*
X168235203Y-83418947D01*
X168521812Y-83137662D01*
X168675196Y-82973263D01*
X168764871Y-82854270D01*
X173353684Y-82854270D01*
X173389158Y-82984242D01*
X173481612Y-83177337D01*
X173575218Y-83335394D01*
X173619500Y-83357688D01*
X173727673Y-83375961D01*
X173909813Y-83390530D01*
X174175996Y-83401714D01*
X174536299Y-83409829D01*
X175000798Y-83415194D01*
X175579569Y-83418125D01*
X176225615Y-83418947D01*
X178822288Y-83418947D01*
X179099035Y-83088404D01*
X179375781Y-82757861D01*
X179204683Y-82486825D01*
X179033586Y-82215789D01*
X173867886Y-82215789D01*
X173610785Y-82494279D01*
X173469654Y-82660619D01*
X173376270Y-82796497D01*
X173353684Y-82854270D01*
X168764871Y-82854270D01*
X168779202Y-82835255D01*
X168808421Y-82767678D01*
X168770611Y-82644953D01*
X168680444Y-82479326D01*
X168572810Y-82329182D01*
X168509175Y-82266944D01*
X168428880Y-82255777D01*
X168232938Y-82245944D01*
X167939380Y-82237489D01*
X167566239Y-82230451D01*
X167131546Y-82224873D01*
X166653331Y-82220795D01*
X166149627Y-82218260D01*
X165638464Y-82217309D01*
X165137874Y-82217982D01*
X164665889Y-82220323D01*
X164240540Y-82224371D01*
X163879858Y-82230169D01*
X163601875Y-82237757D01*
X163424621Y-82247178D01*
X163369454Y-82255135D01*
X163272052Y-82326417D01*
X163130562Y-82467938D01*
X163027252Y-82586964D01*
X162787583Y-82879448D01*
X137163456Y-82879448D01*
X137265255Y-82757861D01*
X137094157Y-82486825D01*
X136923060Y-82215789D01*
X131757359Y-82215789D01*
X131500259Y-82494279D01*
X131359128Y-82660619D01*
X131265744Y-82796497D01*
X131243158Y-82854270D01*
X97421053Y-82854270D01*
X97421053Y-81867631D01*
X99191978Y-81867631D01*
X99195399Y-81977146D01*
X99205576Y-82055489D01*
X99221806Y-82113978D01*
X99243384Y-82163933D01*
X99262597Y-82202494D01*
X99357083Y-82344770D01*
X99449705Y-82414801D01*
X99461421Y-82416315D01*
X99548389Y-82365034D01*
X99672380Y-82233420D01*
X99757236Y-82120308D01*
X99811988Y-82038571D01*
X99857425Y-81958591D01*
X99896042Y-81865543D01*
X99930334Y-81744603D01*
X99962796Y-81580944D01*
X99995923Y-81359740D01*
X100032211Y-81066168D01*
X100074153Y-80685399D01*
X100124247Y-80202611D01*
X100184986Y-79602976D01*
X100191098Y-79542392D01*
X100244288Y-79000592D01*
X100290797Y-78498239D01*
X100318470Y-78177519D01*
X103806975Y-78177519D01*
X103813167Y-78347094D01*
X103839275Y-78532436D01*
X103889491Y-78753911D01*
X103968008Y-79031883D01*
X104079019Y-79386718D01*
X104226716Y-79838780D01*
X104305433Y-80076842D01*
X104415829Y-80416850D01*
X104532588Y-80786944D01*
X104632446Y-81113268D01*
X104642289Y-81146315D01*
X104789340Y-81537535D01*
X104960177Y-81798404D01*
X105155892Y-81930316D01*
X105270931Y-81948421D01*
X105420308Y-81892494D01*
X105475902Y-81798026D01*
X105511839Y-81707015D01*
X105537330Y-81726480D01*
X105567250Y-81856682D01*
X105630930Y-82042317D01*
X105733839Y-82225263D01*
X105848004Y-82363805D01*
X105942575Y-82416313D01*
X106022988Y-82368099D01*
X106141513Y-82247665D01*
X106181541Y-82199077D01*
X106301321Y-82042780D01*
X106386669Y-81923654D01*
X106399034Y-81904257D01*
X106404731Y-81877071D01*
X109689565Y-81877071D01*
X109699327Y-81997154D01*
X109719704Y-82087628D01*
X109750172Y-82165720D01*
X109758996Y-82184675D01*
X109860020Y-82354498D01*
X109958913Y-82402548D01*
X110078196Y-82329575D01*
X110192067Y-82199077D01*
X110262298Y-82113460D01*
X110318952Y-82044838D01*
X110364894Y-81978869D01*
X110402987Y-81901210D01*
X110413708Y-81867631D01*
X116169873Y-81867631D01*
X116173293Y-81977146D01*
X116183471Y-82055489D01*
X116199701Y-82113978D01*
X116221279Y-82163933D01*
X116240491Y-82202494D01*
X116334977Y-82344770D01*
X116427600Y-82414801D01*
X116439316Y-82416315D01*
X116526400Y-82365041D01*
X116650325Y-82233512D01*
X116734052Y-82121875D01*
X116778824Y-82059255D01*
X116816545Y-82006011D01*
X116849063Y-81950793D01*
X116878227Y-81882252D01*
X116879764Y-81877071D01*
X120250618Y-81877071D01*
X120260380Y-81997154D01*
X120280756Y-82087628D01*
X120311225Y-82165720D01*
X120320048Y-82184675D01*
X120421072Y-82354498D01*
X120519966Y-82402548D01*
X120639249Y-82329575D01*
X120753120Y-82199077D01*
X120872900Y-82042780D01*
X120958248Y-81923654D01*
X120970613Y-81904257D01*
X120987932Y-81821622D01*
X121016342Y-81621700D01*
X121053996Y-81320260D01*
X121099053Y-80933072D01*
X121149667Y-80475907D01*
X121203995Y-79964533D01*
X121250751Y-79508585D01*
X121371077Y-78316186D01*
X124848848Y-78316186D01*
X124867455Y-78495297D01*
X124910535Y-78675500D01*
X124954227Y-78816170D01*
X125165034Y-79465473D01*
X125351727Y-80044251D01*
X125509917Y-80538780D01*
X125635218Y-80935340D01*
X125723243Y-81220210D01*
X125730233Y-81243376D01*
X125863205Y-81581435D01*
X126021686Y-81811527D01*
X126196686Y-81926788D01*
X126379210Y-81920351D01*
X126508816Y-81837798D01*
X126599418Y-81764954D01*
X126628704Y-81788151D01*
X126631053Y-81846619D01*
X126666799Y-81990851D01*
X126754532Y-82162454D01*
X126864992Y-82316362D01*
X126968921Y-82407509D01*
X127000925Y-82416315D01*
X127087570Y-82365043D01*
X127211345Y-82233450D01*
X127296183Y-82120308D01*
X127350843Y-82038720D01*
X127396220Y-81958888D01*
X127434800Y-81866021D01*
X127469069Y-81745327D01*
X127481775Y-81681367D01*
X131755296Y-81681367D01*
X131776952Y-81896012D01*
X131851564Y-82000505D01*
X131983623Y-82002895D01*
X132115707Y-81946493D01*
X132189042Y-81877071D01*
X137228513Y-81877071D01*
X137238275Y-81997154D01*
X137258651Y-82087628D01*
X137289120Y-82165720D01*
X137297943Y-82184675D01*
X137398967Y-82354498D01*
X137497860Y-82402548D01*
X137617144Y-82329575D01*
X137731014Y-82199077D01*
X137801245Y-82113460D01*
X137857899Y-82044838D01*
X137903841Y-81978869D01*
X137910579Y-81965131D01*
X144478681Y-81965131D01*
X144538909Y-81991788D01*
X144696004Y-82009970D01*
X144871358Y-82015263D01*
X145264821Y-82015263D01*
X145285870Y-81867631D01*
X158280399Y-81867631D01*
X158283820Y-81977146D01*
X158293997Y-82055489D01*
X158310228Y-82113978D01*
X158331805Y-82163933D01*
X158351018Y-82202494D01*
X158445504Y-82344770D01*
X158538126Y-82414801D01*
X158549842Y-82416315D01*
X158636926Y-82365041D01*
X158760852Y-82233512D01*
X158844579Y-82121875D01*
X158889350Y-82059255D01*
X158927071Y-82006011D01*
X158959589Y-81950793D01*
X158988753Y-81882252D01*
X158990290Y-81877071D01*
X162361144Y-81877071D01*
X162370906Y-81997154D01*
X162391283Y-82087628D01*
X162421751Y-82165720D01*
X162430574Y-82184675D01*
X162531599Y-82354498D01*
X162630492Y-82402548D01*
X162749775Y-82329575D01*
X162863646Y-82199077D01*
X162983427Y-82042780D01*
X163068774Y-81923654D01*
X163081139Y-81904257D01*
X163098459Y-81821622D01*
X163123353Y-81646433D01*
X163339714Y-81646433D01*
X163343061Y-81824808D01*
X163371401Y-81922949D01*
X163403253Y-81955424D01*
X163491942Y-82004955D01*
X163564018Y-81997836D01*
X163641408Y-81958558D01*
X168736941Y-81958558D01*
X168878395Y-82187437D01*
X168989167Y-82332747D01*
X169090080Y-82411611D01*
X169111451Y-82416315D01*
X169198096Y-82365043D01*
X169321871Y-82233450D01*
X169406710Y-82120308D01*
X169461370Y-82038720D01*
X169506746Y-81958888D01*
X169544550Y-81867887D01*
X172852020Y-81867887D01*
X172855527Y-81977587D01*
X172865829Y-82056170D01*
X172882226Y-82114960D01*
X172904021Y-82165283D01*
X172924398Y-82206105D01*
X173027386Y-82356985D01*
X173137860Y-82391072D01*
X173270013Y-82305802D01*
X173425969Y-82115526D01*
X173498104Y-82006305D01*
X173554337Y-81891036D01*
X173571084Y-81838057D01*
X173854727Y-81838057D01*
X173878913Y-81933035D01*
X173905152Y-81960176D01*
X174028496Y-82010073D01*
X174161840Y-81978686D01*
X174226233Y-81946493D01*
X174299568Y-81877071D01*
X179339039Y-81877071D01*
X179348801Y-81997154D01*
X179369177Y-82087628D01*
X179399646Y-82165720D01*
X179408469Y-82184675D01*
X179509493Y-82354498D01*
X179608387Y-82402548D01*
X179727670Y-82329575D01*
X179841541Y-82199077D01*
X179911771Y-82113460D01*
X179968426Y-82044838D01*
X180014367Y-81978869D01*
X180052460Y-81901210D01*
X180085569Y-81797519D01*
X180116557Y-81653452D01*
X180148290Y-81454667D01*
X180183629Y-81186821D01*
X180225441Y-80835573D01*
X180276589Y-80386578D01*
X180339936Y-79825494D01*
X180372105Y-79542105D01*
X180421373Y-79110123D01*
X180470948Y-78676733D01*
X180516562Y-78279145D01*
X180553949Y-77954567D01*
X180570840Y-77808781D01*
X180600808Y-77531467D01*
X180608656Y-77346413D01*
X180588849Y-77213226D01*
X180535857Y-77091516D01*
X180454115Y-76956664D01*
X180337952Y-76791847D01*
X180241152Y-76687345D01*
X180205000Y-76668016D01*
X180125557Y-76715991D01*
X180005759Y-76836566D01*
X179958045Y-76893631D01*
X179915026Y-76945551D01*
X179878989Y-76991216D01*
X179848179Y-77042555D01*
X179820844Y-77111495D01*
X179795231Y-77209962D01*
X179769586Y-77349885D01*
X179742157Y-77543191D01*
X179711190Y-77801807D01*
X179674932Y-78137659D01*
X179631630Y-78562677D01*
X179579530Y-79088786D01*
X179516881Y-79727914D01*
X179467713Y-80229543D01*
X179416574Y-80756089D01*
X179378658Y-81166887D01*
X179353446Y-81479165D01*
X179340413Y-81710150D01*
X179339039Y-81877071D01*
X174299568Y-81877071D01*
X174332347Y-81846042D01*
X174448234Y-81674108D01*
X174489215Y-81595572D01*
X174604814Y-81368996D01*
X174748684Y-81107766D01*
X174823571Y-80979210D01*
X174958673Y-80745490D01*
X175083857Y-80516210D01*
X175137580Y-80411052D01*
X175219807Y-80252496D01*
X175280258Y-80153333D01*
X175288622Y-80143684D01*
X175340159Y-80069057D01*
X175427165Y-79919734D01*
X175469241Y-79842894D01*
X175600650Y-79602209D01*
X175740759Y-79350891D01*
X175764962Y-79308158D01*
X175964544Y-78944929D01*
X176103668Y-78654720D01*
X176196307Y-78399504D01*
X176256434Y-78141255D01*
X176295499Y-77864367D01*
X176323602Y-77532152D01*
X176315692Y-77319076D01*
X176268685Y-77214714D01*
X176179493Y-77208639D01*
X176111669Y-77243207D01*
X175999737Y-77350335D01*
X175888264Y-77508507D01*
X175887940Y-77509073D01*
X175814274Y-77637010D01*
X175689029Y-77853291D01*
X175527953Y-78130768D01*
X175346795Y-78442294D01*
X175290221Y-78539473D01*
X174956864Y-79112009D01*
X174684101Y-79581944D01*
X174465486Y-79962339D01*
X174294572Y-80266252D01*
X174164913Y-80506743D01*
X174070064Y-80696872D01*
X174003579Y-80849698D01*
X173959010Y-80978280D01*
X173929912Y-81095677D01*
X173909839Y-81214950D01*
X173892345Y-81349157D01*
X173888563Y-81379139D01*
X173858180Y-81661712D01*
X173854727Y-81838057D01*
X173571084Y-81838057D01*
X173600104Y-81746258D01*
X173640844Y-81548515D01*
X173681992Y-81274346D01*
X173728986Y-80900293D01*
X173751297Y-80711842D01*
X173808213Y-80226856D01*
X173873914Y-79667469D01*
X173941541Y-79092046D01*
X174004238Y-78558950D01*
X174025199Y-78380836D01*
X174165825Y-77186146D01*
X173973073Y-76947995D01*
X173841025Y-76798855D01*
X173733316Y-76701102D01*
X173704484Y-76684564D01*
X173626162Y-76720238D01*
X173514010Y-76839508D01*
X173456604Y-76919260D01*
X173396014Y-77020583D01*
X173347374Y-77133277D01*
X173306698Y-77278207D01*
X173269996Y-77476240D01*
X173233283Y-77748243D01*
X173192571Y-78115084D01*
X173152437Y-78511064D01*
X173076427Y-79277403D01*
X173012802Y-79922024D01*
X172960865Y-80456253D01*
X172919915Y-80891414D01*
X172889255Y-81238833D01*
X172868185Y-81509835D01*
X172856006Y-81715745D01*
X172852020Y-81867887D01*
X169544550Y-81867887D01*
X169545326Y-81866021D01*
X169579595Y-81745327D01*
X169612039Y-81582015D01*
X169645145Y-81361292D01*
X169681398Y-81068369D01*
X169723285Y-80688453D01*
X169773292Y-80206753D01*
X169833904Y-79608477D01*
X169841418Y-79534006D01*
X169903204Y-78917123D01*
X169951655Y-78418841D01*
X169987500Y-78024819D01*
X170011470Y-77720714D01*
X170024293Y-77492186D01*
X170026699Y-77324893D01*
X170019418Y-77204494D01*
X170003180Y-77116646D01*
X169978714Y-77047009D01*
X169969024Y-77025719D01*
X169848148Y-76806437D01*
X169738422Y-76709650D01*
X169616655Y-76728652D01*
X169459656Y-76856739D01*
X169442812Y-76873585D01*
X169389876Y-76923248D01*
X169345947Y-76962742D01*
X169309152Y-77003808D01*
X169277613Y-77058188D01*
X169249456Y-77137624D01*
X169222806Y-77253856D01*
X169195787Y-77418626D01*
X169166525Y-77643677D01*
X169133143Y-77940749D01*
X169093767Y-78321584D01*
X169046521Y-78797923D01*
X168989530Y-79381509D01*
X168920918Y-80084081D01*
X168906383Y-80232305D01*
X168736941Y-81958558D01*
X163641408Y-81958558D01*
X163665181Y-81946493D01*
X163771294Y-81846042D01*
X163887181Y-81674108D01*
X163928163Y-81595572D01*
X164043761Y-81368996D01*
X164187632Y-81107766D01*
X164262518Y-80979210D01*
X164397621Y-80745490D01*
X164522804Y-80516210D01*
X164576528Y-80411052D01*
X164658755Y-80252496D01*
X164719206Y-80153333D01*
X164727570Y-80143684D01*
X164779106Y-80069057D01*
X164866113Y-79919734D01*
X164908189Y-79842894D01*
X165039598Y-79602209D01*
X165179707Y-79350891D01*
X165203910Y-79308158D01*
X165403492Y-78944929D01*
X165542615Y-78654720D01*
X165635254Y-78399504D01*
X165695382Y-78141255D01*
X165734447Y-77864367D01*
X165762549Y-77532152D01*
X165754640Y-77319076D01*
X165707632Y-77214714D01*
X165618441Y-77208639D01*
X165550616Y-77243207D01*
X165438685Y-77350335D01*
X165327211Y-77508507D01*
X165326888Y-77509073D01*
X165253230Y-77637020D01*
X165128012Y-77853320D01*
X164966981Y-78130819D01*
X164785882Y-78442366D01*
X164729373Y-78539473D01*
X164397893Y-79108715D01*
X164126831Y-79575104D01*
X163909882Y-79951630D01*
X163740741Y-80251285D01*
X163613103Y-80487058D01*
X163520663Y-80671940D01*
X163457117Y-80818920D01*
X163416159Y-80940989D01*
X163391484Y-81051138D01*
X163376787Y-81162355D01*
X163365764Y-81287632D01*
X163359453Y-81361942D01*
X163339714Y-81646433D01*
X163123353Y-81646433D01*
X163126868Y-81621700D01*
X163164523Y-81320260D01*
X163209579Y-80933072D01*
X163260193Y-80475907D01*
X163314521Y-79964533D01*
X163361277Y-79508585D01*
X163595200Y-77190497D01*
X163461284Y-77002430D01*
X163370148Y-76854747D01*
X163327754Y-76747234D01*
X163327368Y-76741129D01*
X163290056Y-76669707D01*
X163193010Y-76694004D01*
X163058564Y-76804208D01*
X162980150Y-76893631D01*
X162937132Y-76945551D01*
X162901094Y-76991216D01*
X162870284Y-77042555D01*
X162842949Y-77111495D01*
X162817336Y-77209962D01*
X162791691Y-77349885D01*
X162764262Y-77543191D01*
X162733295Y-77801807D01*
X162697037Y-78137659D01*
X162653735Y-78562677D01*
X162601636Y-79088786D01*
X162538986Y-79727914D01*
X162489819Y-80229543D01*
X162438679Y-80756089D01*
X162400764Y-81166887D01*
X162375551Y-81479165D01*
X162362518Y-81710150D01*
X162361144Y-81877071D01*
X158990290Y-81877071D01*
X159016410Y-81789037D01*
X159044407Y-81659800D01*
X159074593Y-81483189D01*
X159108816Y-81247856D01*
X159148922Y-80942451D01*
X159196760Y-80555624D01*
X159254177Y-80076025D01*
X159323022Y-79492304D01*
X159405141Y-78793112D01*
X159453620Y-78380836D01*
X159594246Y-77186146D01*
X159401494Y-76947995D01*
X159269446Y-76798855D01*
X159161737Y-76701102D01*
X159132905Y-76684564D01*
X159054583Y-76720238D01*
X158942431Y-76839508D01*
X158885025Y-76919260D01*
X158824435Y-77020583D01*
X158775795Y-77133277D01*
X158735119Y-77278207D01*
X158698417Y-77476240D01*
X158661704Y-77748243D01*
X158620992Y-78115084D01*
X158580858Y-78511064D01*
X158504851Y-79277431D01*
X158441240Y-79922076D01*
X158389318Y-80456318D01*
X158348382Y-80891475D01*
X158317727Y-81238866D01*
X158296648Y-81509810D01*
X158284440Y-81715626D01*
X158280399Y-81867631D01*
X145285870Y-81867631D01*
X145305326Y-81731184D01*
X145322606Y-81595457D01*
X145352375Y-81345498D01*
X145392492Y-80999955D01*
X145440818Y-80577476D01*
X145495211Y-80096711D01*
X145553532Y-79576308D01*
X145581974Y-79320770D01*
X145818117Y-77194436D01*
X145666032Y-77002581D01*
X145502198Y-76827847D01*
X145367314Y-76768267D01*
X145237709Y-76816102D01*
X145197300Y-76849351D01*
X145144535Y-76896411D01*
X145099271Y-76941421D01*
X145059881Y-76995032D01*
X145024737Y-77067900D01*
X144992210Y-77170678D01*
X144960672Y-77314021D01*
X144928494Y-77508583D01*
X144894049Y-77765017D01*
X144855708Y-78093978D01*
X144811843Y-78506119D01*
X144760825Y-79012096D01*
X144701027Y-79622561D01*
X144630819Y-80348169D01*
X144576342Y-80912368D01*
X144542477Y-81265516D01*
X144513669Y-81570996D01*
X144492188Y-81804310D01*
X144480308Y-81940962D01*
X144478681Y-81965131D01*
X137910579Y-81965131D01*
X137941934Y-81901210D01*
X137975043Y-81797519D01*
X138006031Y-81653452D01*
X138037763Y-81454667D01*
X138073103Y-81186821D01*
X138114915Y-80835573D01*
X138166062Y-80386578D01*
X138229410Y-79825494D01*
X138261579Y-79542105D01*
X138310847Y-79110123D01*
X138360421Y-78676733D01*
X138406035Y-78279145D01*
X138443423Y-77954567D01*
X138460314Y-77808781D01*
X138490282Y-77531467D01*
X138498129Y-77346413D01*
X138478323Y-77213226D01*
X138425330Y-77091516D01*
X138343589Y-76956664D01*
X138227426Y-76791847D01*
X138130626Y-76687345D01*
X138094474Y-76668016D01*
X138015030Y-76715991D01*
X137895232Y-76836566D01*
X137847519Y-76893631D01*
X137804500Y-76945551D01*
X137768462Y-76991216D01*
X137737653Y-77042555D01*
X137710318Y-77111495D01*
X137684704Y-77209962D01*
X137659060Y-77349885D01*
X137631630Y-77543191D01*
X137600663Y-77801807D01*
X137564405Y-78137659D01*
X137521103Y-78562677D01*
X137469004Y-79088786D01*
X137406354Y-79727914D01*
X137357187Y-80229543D01*
X137306047Y-80756089D01*
X137268132Y-81166887D01*
X137242919Y-81479165D01*
X137229887Y-81710150D01*
X137228513Y-81877071D01*
X132189042Y-81877071D01*
X132221820Y-81846042D01*
X132337707Y-81674108D01*
X132378689Y-81595572D01*
X132494287Y-81368996D01*
X132638158Y-81107766D01*
X132713045Y-80979210D01*
X132848147Y-80745490D01*
X132973331Y-80516210D01*
X133027054Y-80411052D01*
X133109281Y-80252496D01*
X133169732Y-80153333D01*
X133178096Y-80143684D01*
X133229632Y-80069057D01*
X133316639Y-79919734D01*
X133358715Y-79842894D01*
X133490124Y-79602209D01*
X133630233Y-79350891D01*
X133654436Y-79308158D01*
X133854018Y-78944929D01*
X133993142Y-78654720D01*
X134085780Y-78399504D01*
X134145908Y-78141255D01*
X134184973Y-77864367D01*
X134213076Y-77532152D01*
X134205166Y-77319076D01*
X134158158Y-77214714D01*
X134068967Y-77208639D01*
X134001142Y-77243207D01*
X133889211Y-77350335D01*
X133777737Y-77508507D01*
X133777414Y-77509073D01*
X133703748Y-77637010D01*
X133578502Y-77853291D01*
X133417427Y-78130768D01*
X133236268Y-78442294D01*
X133179694Y-78539473D01*
X132846041Y-79112600D01*
X132573071Y-79583070D01*
X132354340Y-79963833D01*
X132183404Y-80267843D01*
X132053820Y-80508051D01*
X131959143Y-80697408D01*
X131892929Y-80848866D01*
X131848736Y-80975376D01*
X131820118Y-81089892D01*
X131800633Y-81205363D01*
X131783836Y-81334743D01*
X131782109Y-81348527D01*
X131755296Y-81681367D01*
X127481775Y-81681367D01*
X127501513Y-81582015D01*
X127534618Y-81361292D01*
X127570872Y-81068369D01*
X127612758Y-80688453D01*
X127662765Y-80206753D01*
X127723378Y-79608477D01*
X127730891Y-79534006D01*
X127792678Y-78917123D01*
X127841129Y-78418841D01*
X127876974Y-78024819D01*
X127900944Y-77720714D01*
X127913767Y-77492186D01*
X127916173Y-77324893D01*
X127908892Y-77204494D01*
X127892654Y-77116646D01*
X127868187Y-77047009D01*
X127858498Y-77025719D01*
X127737651Y-76806472D01*
X127627823Y-76709663D01*
X127505615Y-76728553D01*
X127347628Y-76856403D01*
X127330294Y-76873585D01*
X127101846Y-77102368D01*
X127002460Y-78138421D01*
X126959410Y-78588183D01*
X126912699Y-79077826D01*
X126867549Y-79552511D01*
X126829182Y-79957400D01*
X126824215Y-80010000D01*
X126778635Y-80429752D01*
X126732981Y-80727186D01*
X126687985Y-80899382D01*
X126644379Y-80943420D01*
X126607611Y-80873414D01*
X126571827Y-80762087D01*
X126499396Y-80544838D01*
X126397275Y-80242114D01*
X126272424Y-79874365D01*
X126131802Y-79462040D01*
X125982367Y-79025587D01*
X125831079Y-78585456D01*
X125688269Y-78171842D01*
X125574579Y-77842654D01*
X125478107Y-77561865D01*
X125406539Y-77351960D01*
X125367562Y-77235427D01*
X125362690Y-77219342D01*
X125303332Y-77207454D01*
X125166401Y-77202631D01*
X125035697Y-77218159D01*
X124970305Y-77290606D01*
X124935241Y-77453289D01*
X124883204Y-77828395D01*
X124854252Y-78104956D01*
X124848848Y-78316186D01*
X121371077Y-78316186D01*
X121484673Y-77190497D01*
X121350758Y-77002430D01*
X121259622Y-76854747D01*
X121217228Y-76747234D01*
X121216842Y-76741129D01*
X121179530Y-76669707D01*
X121082483Y-76694004D01*
X120948038Y-76804208D01*
X120869624Y-76893631D01*
X120826605Y-76945551D01*
X120790568Y-76991216D01*
X120759758Y-77042555D01*
X120732423Y-77111495D01*
X120706810Y-77209962D01*
X120681165Y-77349885D01*
X120653736Y-77543191D01*
X120622769Y-77801807D01*
X120586511Y-78137659D01*
X120543208Y-78562677D01*
X120491109Y-79088786D01*
X120428460Y-79727914D01*
X120379292Y-80229543D01*
X120328153Y-80756089D01*
X120290237Y-81166887D01*
X120265025Y-81479165D01*
X120251992Y-81710150D01*
X120250618Y-81877071D01*
X116879764Y-81877071D01*
X116905884Y-81789037D01*
X116933881Y-81659800D01*
X116964067Y-81483189D01*
X116998289Y-81247856D01*
X117038396Y-80942451D01*
X117086233Y-80555624D01*
X117143651Y-80076025D01*
X117212495Y-79492304D01*
X117294615Y-78793112D01*
X117343093Y-78380836D01*
X117483720Y-77186146D01*
X117290968Y-76947995D01*
X117158920Y-76798855D01*
X117051211Y-76701102D01*
X117022378Y-76684564D01*
X116944056Y-76720238D01*
X116831905Y-76839508D01*
X116774498Y-76919260D01*
X116713909Y-77020583D01*
X116665269Y-77133277D01*
X116624592Y-77278207D01*
X116587891Y-77476240D01*
X116551178Y-77748243D01*
X116510466Y-78115084D01*
X116470332Y-78511064D01*
X116394325Y-79277431D01*
X116330713Y-79922076D01*
X116278792Y-80456318D01*
X116237856Y-80891475D01*
X116207201Y-81238866D01*
X116186122Y-81509810D01*
X116173914Y-81715626D01*
X116169873Y-81867631D01*
X110413708Y-81867631D01*
X110436095Y-81797519D01*
X110467084Y-81653452D01*
X110498816Y-81454667D01*
X110534156Y-81186821D01*
X110575967Y-80835573D01*
X110627115Y-80386578D01*
X110690462Y-79825494D01*
X110722631Y-79542105D01*
X110771900Y-79110123D01*
X110821474Y-78676733D01*
X110867088Y-78279145D01*
X110904475Y-77954567D01*
X110921366Y-77808781D01*
X110951335Y-77531467D01*
X110959182Y-77346413D01*
X110939376Y-77213226D01*
X110886383Y-77091516D01*
X110804642Y-76956664D01*
X110688479Y-76791847D01*
X110591678Y-76687345D01*
X110555526Y-76668016D01*
X110476083Y-76715991D01*
X110356285Y-76836566D01*
X110308571Y-76893631D01*
X110265553Y-76945551D01*
X110229515Y-76991216D01*
X110198705Y-77042555D01*
X110171370Y-77111495D01*
X110145757Y-77209962D01*
X110120112Y-77349885D01*
X110092683Y-77543191D01*
X110061716Y-77801807D01*
X110025458Y-78137659D01*
X109982156Y-78562677D01*
X109930057Y-79088786D01*
X109867407Y-79727914D01*
X109818240Y-80229543D01*
X109767100Y-80756089D01*
X109729185Y-81166887D01*
X109703972Y-81479165D01*
X109690939Y-81710150D01*
X109689565Y-81877071D01*
X106404731Y-81877071D01*
X106416353Y-81821622D01*
X106444763Y-81621700D01*
X106482417Y-81320260D01*
X106527474Y-80933072D01*
X106578088Y-80475907D01*
X106632416Y-79964533D01*
X106679172Y-79508585D01*
X106913094Y-77190497D01*
X106779179Y-77002430D01*
X106688043Y-76854747D01*
X106645649Y-76747234D01*
X106645263Y-76741129D01*
X106605770Y-76669809D01*
X106502201Y-76691214D01*
X106356923Y-76796090D01*
X106251135Y-76904168D01*
X106129151Y-77046545D01*
X106054571Y-77140238D01*
X106043684Y-77158351D01*
X106037263Y-77226940D01*
X106019205Y-77410443D01*
X105991313Y-77690766D01*
X105955392Y-78049817D01*
X105913248Y-78469503D01*
X105876579Y-78833628D01*
X105830159Y-79303007D01*
X105788695Y-79739489D01*
X105754069Y-80121837D01*
X105728166Y-80428814D01*
X105712866Y-80639183D01*
X105709474Y-80718392D01*
X105693916Y-80889720D01*
X105650157Y-80934601D01*
X105582565Y-80856248D01*
X105495509Y-80657869D01*
X105450402Y-80528026D01*
X105387798Y-80340485D01*
X105290069Y-80051916D01*
X105165847Y-79687607D01*
X105023764Y-79272852D01*
X104872452Y-78832941D01*
X104817339Y-78673158D01*
X104657731Y-78211828D01*
X104534244Y-77861346D01*
X104439379Y-77606190D01*
X104365639Y-77430838D01*
X104305527Y-77319770D01*
X104251543Y-77257465D01*
X104196190Y-77228402D01*
X104131972Y-77217059D01*
X104112996Y-77215107D01*
X103969000Y-77206474D01*
X103904475Y-77214159D01*
X103904229Y-77215107D01*
X103896803Y-77286388D01*
X103877425Y-77458553D01*
X103849704Y-77699706D01*
X103837568Y-77804210D01*
X103816506Y-78003346D01*
X103806975Y-78177519D01*
X100318470Y-78177519D01*
X100329341Y-78051534D01*
X100358635Y-77676680D01*
X100377397Y-77389880D01*
X100384343Y-77207335D01*
X100380827Y-77148005D01*
X100305802Y-76994999D01*
X100199439Y-76835434D01*
X100093610Y-76712230D01*
X100024291Y-76667894D01*
X99953808Y-76718975D01*
X99846415Y-76848132D01*
X99793755Y-76923564D01*
X99733999Y-77024156D01*
X99685843Y-77137693D01*
X99645342Y-77284962D01*
X99608549Y-77486751D01*
X99571519Y-77763849D01*
X99530307Y-78137043D01*
X99492437Y-78511064D01*
X99416430Y-79277431D01*
X99352819Y-79922076D01*
X99300897Y-80456318D01*
X99259961Y-80891475D01*
X99229306Y-81238866D01*
X99208227Y-81509810D01*
X99196019Y-81715626D01*
X99191978Y-81867631D01*
X97421053Y-81867631D01*
X97421053Y-76416063D01*
X110791434Y-76416063D01*
X110924138Y-76602429D01*
X111014792Y-76749613D01*
X111056531Y-76856574D01*
X111056842Y-76862029D01*
X111116267Y-76894047D01*
X111297141Y-76916736D01*
X111603365Y-76930374D01*
X112038838Y-76935243D01*
X112073366Y-76935263D01*
X113089890Y-76935263D01*
X113343366Y-76687750D01*
X113505643Y-76501165D01*
X114146997Y-76501165D01*
X114237983Y-76694791D01*
X114269815Y-76741129D01*
X114408050Y-76935263D01*
X116298311Y-76935263D01*
X116551787Y-76687750D01*
X116729241Y-76483715D01*
X116757653Y-76405713D01*
X135168463Y-76405713D01*
X135198394Y-76518600D01*
X135257859Y-76603496D01*
X135348552Y-76746063D01*
X135385882Y-76851710D01*
X135421479Y-76886352D01*
X135536583Y-76910748D01*
X135745811Y-76926153D01*
X136063776Y-76933824D01*
X136358338Y-76935263D01*
X137329307Y-76935263D01*
X137631728Y-76632842D01*
X137848507Y-76416063D01*
X152901960Y-76416063D01*
X153034664Y-76602429D01*
X153125318Y-76749613D01*
X153167058Y-76856574D01*
X153167368Y-76862029D01*
X153226793Y-76894047D01*
X153407667Y-76916736D01*
X153713891Y-76930374D01*
X154149365Y-76935243D01*
X154183892Y-76935263D01*
X155200416Y-76935263D01*
X155453892Y-76687750D01*
X155616169Y-76501165D01*
X156257523Y-76501165D01*
X156348509Y-76694791D01*
X156380341Y-76741129D01*
X156518577Y-76935263D01*
X158408837Y-76935263D01*
X158662313Y-76687750D01*
X158839768Y-76483715D01*
X158903583Y-76308518D01*
X158857700Y-76127384D01*
X158745282Y-75955651D01*
X158574775Y-75732105D01*
X157659098Y-75734231D01*
X157270624Y-75737043D01*
X156990533Y-75748381D01*
X156793526Y-75775735D01*
X156654306Y-75826598D01*
X156547574Y-75908462D01*
X156448032Y-76028818D01*
X156390046Y-76110055D01*
X156271122Y-76322271D01*
X156257523Y-76501165D01*
X155616169Y-76501165D01*
X155631346Y-76483715D01*
X155695162Y-76308518D01*
X155649279Y-76127384D01*
X155536861Y-75955651D01*
X155366354Y-75732105D01*
X154450677Y-75732187D01*
X154058040Y-75734486D01*
X153771790Y-75747694D01*
X153564639Y-75781395D01*
X153409297Y-75845173D01*
X153278474Y-75948613D01*
X153144880Y-76101300D01*
X153049015Y-76224479D01*
X152901960Y-76416063D01*
X137848507Y-76416063D01*
X137934149Y-76330422D01*
X137797074Y-76137919D01*
X137704900Y-75991193D01*
X137660673Y-75886828D01*
X137660000Y-75879333D01*
X137637886Y-75823539D01*
X137560256Y-75783278D01*
X137410176Y-75756296D01*
X137170714Y-75740337D01*
X136824937Y-75733148D01*
X136554343Y-75732105D01*
X136193261Y-75732915D01*
X135940605Y-75738241D01*
X135771119Y-75752430D01*
X135659546Y-75779827D01*
X135580627Y-75824778D01*
X135509106Y-75891627D01*
X135485962Y-75915921D01*
X135341401Y-76088939D01*
X135226908Y-76259442D01*
X135221549Y-76269285D01*
X135168463Y-76405713D01*
X116757653Y-76405713D01*
X116793057Y-76308518D01*
X116747174Y-76127384D01*
X116634756Y-75955651D01*
X116464249Y-75732105D01*
X115548572Y-75734231D01*
X115160098Y-75737043D01*
X114880007Y-75748381D01*
X114683000Y-75775735D01*
X114543779Y-75826598D01*
X114437047Y-75908462D01*
X114337506Y-76028818D01*
X114279519Y-76110055D01*
X114160596Y-76322271D01*
X114146997Y-76501165D01*
X113505643Y-76501165D01*
X113520820Y-76483715D01*
X113584635Y-76308518D01*
X113538753Y-76127384D01*
X113426335Y-75955651D01*
X113255828Y-75732105D01*
X112340151Y-75732187D01*
X111947513Y-75734486D01*
X111661264Y-75747694D01*
X111454113Y-75781395D01*
X111298770Y-75845173D01*
X111167947Y-75948613D01*
X111034353Y-76101300D01*
X110938489Y-76224479D01*
X110791434Y-76416063D01*
X97421053Y-76416063D01*
X97421053Y-75352134D01*
X99785607Y-75352134D01*
X99793761Y-75508418D01*
X99824313Y-75631802D01*
X99879647Y-75755590D01*
X99897195Y-75789667D01*
X99999644Y-75955197D01*
X100095484Y-76014579D01*
X100208086Y-75965508D01*
X100360816Y-75805676D01*
X100415796Y-75738469D01*
X100478419Y-75657562D01*
X100528570Y-75577323D01*
X100569680Y-75480150D01*
X100605179Y-75348440D01*
X100638497Y-75164592D01*
X100673064Y-74911004D01*
X100712310Y-74570073D01*
X100759665Y-74124197D01*
X100793007Y-73802748D01*
X100866418Y-73094084D01*
X100927100Y-72506074D01*
X100975666Y-72026354D01*
X101010918Y-71661283D01*
X101181639Y-71661283D01*
X101196454Y-71810457D01*
X101231907Y-71986317D01*
X101292921Y-72210758D01*
X101384423Y-72505678D01*
X101511337Y-72892972D01*
X101599818Y-73158684D01*
X101740346Y-73583208D01*
X101872176Y-73987928D01*
X101987146Y-74347278D01*
X102077091Y-74635693D01*
X102133847Y-74827608D01*
X102139880Y-74849825D01*
X102244607Y-75196352D01*
X102347821Y-75424793D01*
X102459418Y-75550260D01*
X102589293Y-75587862D01*
X102621848Y-75585781D01*
X102710735Y-75568607D01*
X102768267Y-75523660D01*
X102806021Y-75423252D01*
X102819030Y-75342451D01*
X106262936Y-75342451D01*
X106273399Y-75492880D01*
X106309099Y-75618673D01*
X106372959Y-75755843D01*
X106383358Y-75776148D01*
X106477167Y-75943825D01*
X106549824Y-76047592D01*
X106572219Y-76064249D01*
X106631173Y-76014113D01*
X106740323Y-75887470D01*
X106827699Y-75775426D01*
X107043556Y-75488669D01*
X107059161Y-75352134D01*
X110346660Y-75352134D01*
X110354813Y-75508418D01*
X110385366Y-75631802D01*
X110440699Y-75755590D01*
X110458248Y-75789667D01*
X110557434Y-75943882D01*
X110647229Y-76024861D01*
X110677381Y-76028185D01*
X110756379Y-75957658D01*
X110870705Y-75811142D01*
X110940151Y-75707401D01*
X111005370Y-75595490D01*
X111025887Y-75548612D01*
X116731928Y-75548612D01*
X116903228Y-75807464D01*
X117014516Y-75960633D01*
X117100377Y-76052386D01*
X117123711Y-76064249D01*
X117188271Y-76013915D01*
X117300743Y-75887048D01*
X117384500Y-75780170D01*
X117431713Y-75720584D01*
X117471201Y-75671898D01*
X117504717Y-75622680D01*
X117534008Y-75561500D01*
X117560825Y-75476927D01*
X117586917Y-75357529D01*
X117589385Y-75342451D01*
X120834514Y-75342451D01*
X120844978Y-75492880D01*
X120880678Y-75618673D01*
X120944538Y-75755843D01*
X120954936Y-75776148D01*
X121049905Y-75944419D01*
X121125217Y-76049135D01*
X121149322Y-76066315D01*
X121213818Y-76018460D01*
X121326733Y-75896860D01*
X121393731Y-75815658D01*
X121521959Y-75650443D01*
X121616577Y-75521519D01*
X121639381Y-75486996D01*
X121660853Y-75400663D01*
X121691792Y-75196613D01*
X121732478Y-74872354D01*
X121783192Y-74425396D01*
X121844213Y-73853246D01*
X121915823Y-73153415D01*
X121998302Y-72323411D01*
X122017979Y-72122631D01*
X122051262Y-71790988D01*
X122072759Y-71585580D01*
X122243908Y-71585580D01*
X122261342Y-71856324D01*
X122320353Y-72135429D01*
X122428751Y-72475701D01*
X122445637Y-72523684D01*
X122498804Y-72680192D01*
X122584134Y-72939029D01*
X122693458Y-73275066D01*
X122818606Y-73663179D01*
X122951407Y-74078239D01*
X122967225Y-74127894D01*
X123096040Y-74526996D01*
X123214999Y-74885333D01*
X123316989Y-75182285D01*
X123394897Y-75397235D01*
X123441611Y-75509563D01*
X123446838Y-75518247D01*
X123556535Y-75577194D01*
X123684278Y-75585090D01*
X123769879Y-75567399D01*
X123820587Y-75524236D01*
X127297792Y-75524236D01*
X127437030Y-75791369D01*
X127536004Y-75944959D01*
X127625641Y-76025147D01*
X127655276Y-76028185D01*
X127733996Y-75957757D01*
X127848494Y-75811007D01*
X127920660Y-75703268D01*
X127992061Y-75579232D01*
X128010271Y-75536165D01*
X137787847Y-75536165D01*
X137924450Y-75728006D01*
X138016645Y-75876796D01*
X138060474Y-75985524D01*
X138061053Y-75993081D01*
X138101242Y-76061142D01*
X138201125Y-76034534D01*
X138283678Y-75967825D01*
X138404514Y-75835108D01*
X138499738Y-75694237D01*
X138575082Y-75524479D01*
X138636276Y-75305100D01*
X138640376Y-75282589D01*
X146170955Y-75282589D01*
X146171198Y-75471137D01*
X146189272Y-75542750D01*
X146286605Y-75596771D01*
X146416337Y-75551073D01*
X146489509Y-75481447D01*
X146581314Y-75352134D01*
X152457186Y-75352134D01*
X152465340Y-75508418D01*
X152495892Y-75631802D01*
X152551225Y-75755590D01*
X152568774Y-75789667D01*
X152667960Y-75943882D01*
X152757755Y-76024861D01*
X152787907Y-76028185D01*
X152866905Y-75957658D01*
X152981232Y-75811142D01*
X153050677Y-75707401D01*
X153115897Y-75595490D01*
X153136413Y-75548612D01*
X158842455Y-75548612D01*
X159013755Y-75807464D01*
X159125042Y-75960633D01*
X159210903Y-76052386D01*
X159234238Y-76064249D01*
X159298797Y-76013915D01*
X159411269Y-75887048D01*
X159495026Y-75780170D01*
X159542239Y-75720584D01*
X159581728Y-75671898D01*
X159615243Y-75622680D01*
X159644534Y-75561500D01*
X159671351Y-75476927D01*
X159697444Y-75357529D01*
X159699912Y-75342451D01*
X162945041Y-75342451D01*
X162955505Y-75492880D01*
X162991204Y-75618673D01*
X163055064Y-75755843D01*
X163065463Y-75776148D01*
X163160431Y-75944419D01*
X163235743Y-76049135D01*
X163259848Y-76066315D01*
X163324344Y-76018460D01*
X163437259Y-75896860D01*
X163504258Y-75815658D01*
X163632485Y-75650443D01*
X163727104Y-75521519D01*
X163749907Y-75486996D01*
X163761633Y-75437470D01*
X167219948Y-75437470D01*
X167239786Y-75535065D01*
X167343314Y-75594220D01*
X167482343Y-75562128D01*
X167505000Y-75547266D01*
X167532960Y-75524984D01*
X167533627Y-75524236D01*
X169408318Y-75524236D01*
X169547556Y-75791369D01*
X169646530Y-75944959D01*
X169736167Y-76025147D01*
X169765802Y-76028185D01*
X169844522Y-75957757D01*
X169959021Y-75811007D01*
X170031187Y-75703268D01*
X170102588Y-75579232D01*
X170158761Y-75446386D01*
X170187769Y-75342451D01*
X173506093Y-75342451D01*
X173516557Y-75492880D01*
X173552257Y-75618673D01*
X173616117Y-75755843D01*
X173626515Y-75776148D01*
X173720325Y-75943825D01*
X173792982Y-76047592D01*
X173815377Y-76064249D01*
X173874400Y-76014083D01*
X173983119Y-75887598D01*
X174066605Y-75780170D01*
X174113914Y-75720437D01*
X174153474Y-75671587D01*
X174187041Y-75622159D01*
X174216372Y-75560694D01*
X174239268Y-75488244D01*
X177729825Y-75488244D01*
X177738746Y-75542750D01*
X177836078Y-75596771D01*
X177965811Y-75551073D01*
X177981478Y-75536165D01*
X179898373Y-75536165D01*
X180034976Y-75728006D01*
X180127171Y-75876796D01*
X180171000Y-75985524D01*
X180171579Y-75993081D01*
X180211768Y-76061142D01*
X180311652Y-76034534D01*
X180394204Y-75967825D01*
X180515040Y-75835108D01*
X180610264Y-75694237D01*
X180685608Y-75524479D01*
X180746802Y-75305100D01*
X180799578Y-75015367D01*
X180849666Y-74634548D01*
X180902797Y-74141908D01*
X180905061Y-74119647D01*
X180955909Y-73620014D01*
X181011674Y-73074309D01*
X181067318Y-72531682D01*
X181117803Y-72041282D01*
X181145219Y-71776201D01*
X181253918Y-70727928D01*
X181064161Y-70490113D01*
X180874403Y-70252298D01*
X180657932Y-70468912D01*
X180610720Y-70512655D01*
X180571044Y-70547915D01*
X180537140Y-70585533D01*
X180507246Y-70636354D01*
X180479600Y-70711220D01*
X180452440Y-70820976D01*
X180424004Y-70976464D01*
X180392528Y-71188528D01*
X180356252Y-71468010D01*
X180313412Y-71825756D01*
X180262247Y-72272606D01*
X180200993Y-72819406D01*
X180127890Y-73476998D01*
X180041175Y-74256226D01*
X180038457Y-74280582D01*
X179898373Y-75536165D01*
X177981478Y-75536165D01*
X178038982Y-75481447D01*
X178145065Y-75332025D01*
X178228318Y-75197368D01*
X178301714Y-75068910D01*
X178422081Y-74858321D01*
X178570028Y-74599522D01*
X178667702Y-74428684D01*
X179013586Y-73823399D01*
X179299369Y-73320895D01*
X179531245Y-72907865D01*
X179715408Y-72571003D01*
X179858053Y-72297002D01*
X179965375Y-72072556D01*
X180043566Y-71884357D01*
X180098823Y-71719099D01*
X180137338Y-71563475D01*
X180165306Y-71404178D01*
X180188922Y-71227902D01*
X180200120Y-71136710D01*
X180243025Y-70785789D01*
X180043399Y-70785789D01*
X179927647Y-70800629D01*
X179831041Y-70862100D01*
X179726132Y-70995634D01*
X179606623Y-71190423D01*
X179488486Y-71400456D01*
X179403532Y-71567643D01*
X179369523Y-71656935D01*
X179369474Y-71658318D01*
X179322250Y-71720296D01*
X179310427Y-71721579D01*
X179242767Y-71776028D01*
X179213100Y-71838552D01*
X179157643Y-71962046D01*
X179058923Y-72146551D01*
X178995325Y-72256315D01*
X178862114Y-72481381D01*
X178734569Y-72699750D01*
X178691599Y-72774342D01*
X178566175Y-72993605D01*
X178443022Y-73208815D01*
X178336214Y-73393545D01*
X178200027Y-73626695D01*
X178121466Y-73760263D01*
X178003353Y-73968372D01*
X177909450Y-74147938D01*
X177873058Y-74228158D01*
X177840308Y-74360988D01*
X177806048Y-74574238D01*
X177774072Y-74830750D01*
X177748179Y-75093361D01*
X177732164Y-75324913D01*
X177729825Y-75488244D01*
X174239268Y-75488244D01*
X174243223Y-75475732D01*
X174269351Y-75355814D01*
X174296513Y-75189480D01*
X174326463Y-74965270D01*
X174360960Y-74671724D01*
X174401758Y-74297383D01*
X174450616Y-73830788D01*
X174509288Y-73260478D01*
X174579532Y-72574994D01*
X174623600Y-72146042D01*
X174762207Y-70799190D01*
X174619355Y-70525121D01*
X174517470Y-70361616D01*
X174424222Y-70263585D01*
X174392682Y-70251052D01*
X174300046Y-70298718D01*
X174172831Y-70417377D01*
X174135831Y-70459916D01*
X174083791Y-70523147D01*
X174041496Y-70583530D01*
X174006421Y-70656237D01*
X173976045Y-70756439D01*
X173947843Y-70899310D01*
X173919291Y-71100021D01*
X173887868Y-71373744D01*
X173851049Y-71735652D01*
X173806311Y-72200916D01*
X173753690Y-72757631D01*
X173708657Y-73229346D01*
X173662466Y-73704462D01*
X173618456Y-74149258D01*
X173579965Y-74530016D01*
X173550330Y-74813013D01*
X173549178Y-74823648D01*
X173517942Y-75131377D01*
X173506093Y-75342451D01*
X170187769Y-75342451D01*
X170205074Y-75280452D01*
X170246897Y-75057151D01*
X170289598Y-74752205D01*
X170338547Y-74341334D01*
X170345104Y-74283677D01*
X170399917Y-73802631D01*
X170463677Y-73246923D01*
X170529693Y-72674654D01*
X170591273Y-72143929D01*
X170611822Y-71967769D01*
X170750999Y-70776855D01*
X170539342Y-70509615D01*
X170327684Y-70242376D01*
X170109688Y-70453666D01*
X170028333Y-70535989D01*
X169965951Y-70617297D01*
X169917860Y-70717774D01*
X169879379Y-70857606D01*
X169845825Y-71056979D01*
X169812518Y-71336079D01*
X169774776Y-71715091D01*
X169745854Y-72022368D01*
X169719577Y-72300712D01*
X169683546Y-72678568D01*
X169640979Y-73122396D01*
X169595094Y-73598655D01*
X169549108Y-74073803D01*
X169545836Y-74107513D01*
X169408318Y-75524236D01*
X167533627Y-75524236D01*
X167563050Y-75491286D01*
X167605583Y-75429037D01*
X167670872Y-75321102D01*
X167769230Y-75150345D01*
X167910971Y-74899631D01*
X168106408Y-74551825D01*
X168138014Y-74495526D01*
X168483706Y-73880141D01*
X168770258Y-73369676D01*
X169003372Y-72952145D01*
X169188746Y-72615562D01*
X169332082Y-72347941D01*
X169439081Y-72137295D01*
X169515442Y-71971637D01*
X169566867Y-71838982D01*
X169599055Y-71727343D01*
X169617709Y-71624734D01*
X169628527Y-71519169D01*
X169637210Y-71398660D01*
X169642242Y-71332629D01*
X169687359Y-70776574D01*
X169474817Y-70797892D01*
X169349003Y-70835498D01*
X169226241Y-70932966D01*
X169093750Y-71106871D01*
X168938744Y-71373788D01*
X168762419Y-71721579D01*
X168680192Y-71880135D01*
X168619741Y-71979298D01*
X168611377Y-71988947D01*
X168560372Y-72063912D01*
X168474896Y-72213871D01*
X168434370Y-72289737D01*
X168305311Y-72529811D01*
X168165799Y-72780710D01*
X168140841Y-72824473D01*
X168003810Y-73065385D01*
X167842246Y-73353770D01*
X167640718Y-73717264D01*
X167510942Y-73952518D01*
X167439523Y-74128642D01*
X167369347Y-74379565D01*
X167306357Y-74670598D01*
X167256499Y-74967053D01*
X167225714Y-75234240D01*
X167219948Y-75437470D01*
X163761633Y-75437470D01*
X163770792Y-75398791D01*
X163801459Y-75199374D01*
X163839073Y-74910621D01*
X163880799Y-74554406D01*
X163923804Y-74152605D01*
X163927460Y-74116733D01*
X163978239Y-73617792D01*
X164033912Y-73072990D01*
X164089442Y-72531480D01*
X164139792Y-72042415D01*
X164166935Y-71779990D01*
X164275242Y-70735508D01*
X164118805Y-70494107D01*
X163981703Y-70318528D01*
X163858501Y-70265158D01*
X163719755Y-70331739D01*
X163592666Y-70453795D01*
X163536254Y-70513811D01*
X163490625Y-70569684D01*
X163453172Y-70636422D01*
X163421291Y-70729036D01*
X163392374Y-70862536D01*
X163363815Y-71051931D01*
X163333009Y-71312232D01*
X163297348Y-71658448D01*
X163254226Y-72105589D01*
X163201038Y-72668665D01*
X163192637Y-72757631D01*
X163147604Y-73229346D01*
X163101414Y-73704462D01*
X163057404Y-74149258D01*
X163018912Y-74530016D01*
X162989277Y-74813013D01*
X162988125Y-74823648D01*
X162956889Y-75131377D01*
X162945041Y-75342451D01*
X159699912Y-75342451D01*
X159724561Y-75191878D01*
X159754454Y-74968540D01*
X159788871Y-74676086D01*
X159829563Y-74303086D01*
X159878279Y-73838107D01*
X159936769Y-73269720D01*
X160006783Y-72586493D01*
X160053494Y-72131802D01*
X160193574Y-70770709D01*
X160019791Y-70508104D01*
X159846007Y-70245499D01*
X159652840Y-70398670D01*
X159593985Y-70441693D01*
X159544751Y-70476200D01*
X159503151Y-70513378D01*
X159467195Y-70564411D01*
X159434895Y-70640488D01*
X159404263Y-70752793D01*
X159373310Y-70912512D01*
X159340048Y-71130833D01*
X159302488Y-71418940D01*
X159258642Y-71788019D01*
X159206522Y-72249258D01*
X159144138Y-72813842D01*
X159069502Y-73492957D01*
X159015144Y-73986016D01*
X158842455Y-75548612D01*
X153136413Y-75548612D01*
X153167615Y-75477322D01*
X153210160Y-75331128D01*
X153247856Y-75135139D01*
X153285030Y-74867587D01*
X153326008Y-74506701D01*
X153366006Y-74120705D01*
X153416820Y-73621413D01*
X153472499Y-73076533D01*
X153528027Y-72535026D01*
X153578385Y-72045853D01*
X153605882Y-71779990D01*
X153714190Y-70735508D01*
X153557753Y-70494107D01*
X153413280Y-70315461D01*
X153284510Y-70266068D01*
X153155113Y-70345394D01*
X153055160Y-70477621D01*
X153010443Y-70553485D01*
X152971937Y-70640777D01*
X152937468Y-70753967D01*
X152904864Y-70907527D01*
X152871954Y-71115928D01*
X152836564Y-71393642D01*
X152796523Y-71755139D01*
X152749658Y-72214891D01*
X152693796Y-72787370D01*
X152667751Y-73058421D01*
X152626084Y-73492024D01*
X152581892Y-73949968D01*
X152539905Y-74383359D01*
X152504852Y-74743301D01*
X152498552Y-74807652D01*
X152469051Y-75129647D01*
X152457186Y-75352134D01*
X146581314Y-75352134D01*
X146595591Y-75332025D01*
X146678844Y-75197368D01*
X146752241Y-75068910D01*
X146872607Y-74858321D01*
X147020554Y-74599522D01*
X147118228Y-74428684D01*
X147469243Y-73814314D01*
X147759781Y-73302714D01*
X147995659Y-72880564D01*
X148182695Y-72534547D01*
X148326708Y-72251343D01*
X148433515Y-72017635D01*
X148508934Y-71820103D01*
X148558782Y-71645428D01*
X148588878Y-71480293D01*
X148605039Y-71311379D01*
X148613083Y-71125367D01*
X148616465Y-70998791D01*
X148609844Y-70849004D01*
X148553436Y-70794774D01*
X148410114Y-70798265D01*
X148219132Y-70861165D01*
X148087586Y-71019737D01*
X147993915Y-71189751D01*
X147868117Y-71418184D01*
X147774686Y-71587894D01*
X147635880Y-71839115D01*
X147496192Y-72090454D01*
X147422113Y-72222894D01*
X147288219Y-72464072D01*
X147150784Y-72715723D01*
X147128189Y-72757631D01*
X147034751Y-72925612D01*
X146966411Y-73037987D01*
X146951053Y-73058421D01*
X146897739Y-73140437D01*
X146794298Y-73324685D01*
X146650204Y-73593734D01*
X146474932Y-73930154D01*
X146435838Y-74006196D01*
X146366244Y-74188413D01*
X146299301Y-74442425D01*
X146240665Y-74732969D01*
X146195997Y-75024778D01*
X146170955Y-75282589D01*
X138640376Y-75282589D01*
X138689052Y-75015367D01*
X138739140Y-74634548D01*
X138792271Y-74141908D01*
X138794534Y-74119647D01*
X138845383Y-73620014D01*
X138901148Y-73074309D01*
X138956791Y-72531682D01*
X139007277Y-72041282D01*
X139034693Y-71776201D01*
X139143391Y-70727928D01*
X138763877Y-70252298D01*
X138547405Y-70468912D01*
X138500194Y-70512655D01*
X138460517Y-70547915D01*
X138426613Y-70585533D01*
X138396720Y-70636354D01*
X138369074Y-70711220D01*
X138341914Y-70820976D01*
X138313477Y-70976464D01*
X138282002Y-71188528D01*
X138245725Y-71468010D01*
X138202886Y-71825756D01*
X138151720Y-72272606D01*
X138090467Y-72819406D01*
X138017364Y-73476998D01*
X137930648Y-74256226D01*
X137927931Y-74280582D01*
X137787847Y-75536165D01*
X128010271Y-75536165D01*
X128048234Y-75446386D01*
X128094548Y-75280452D01*
X128136371Y-75057151D01*
X128179072Y-74752205D01*
X128228020Y-74341334D01*
X128234578Y-74283677D01*
X128289391Y-73802631D01*
X128353151Y-73246923D01*
X128419167Y-72674654D01*
X128480747Y-72143929D01*
X128501296Y-71967769D01*
X128640473Y-70776855D01*
X128428815Y-70509615D01*
X128217158Y-70242376D01*
X127999162Y-70453666D01*
X127917807Y-70535989D01*
X127855424Y-70617297D01*
X127807334Y-70717774D01*
X127768852Y-70857606D01*
X127735299Y-71056979D01*
X127701992Y-71336079D01*
X127664249Y-71715091D01*
X127635328Y-72022368D01*
X127609050Y-72300712D01*
X127573020Y-72678568D01*
X127530453Y-73122396D01*
X127484568Y-73598655D01*
X127438581Y-74073803D01*
X127435310Y-74107513D01*
X127297792Y-75524236D01*
X123820587Y-75524236D01*
X123825419Y-75520123D01*
X123862045Y-75415564D01*
X123890901Y-75226026D01*
X123913815Y-75014686D01*
X123934373Y-74791545D01*
X123941075Y-74605466D01*
X123929068Y-74428356D01*
X123893500Y-74232119D01*
X123829517Y-73988664D01*
X123732268Y-73669896D01*
X123622100Y-73325789D01*
X123532261Y-73044187D01*
X123422732Y-72696234D01*
X123305105Y-72319254D01*
X123190971Y-71950566D01*
X123091921Y-71627495D01*
X123019546Y-71387360D01*
X123009696Y-71353947D01*
X122882522Y-71058242D01*
X122710360Y-70864227D01*
X122506826Y-70786593D01*
X122483044Y-70785789D01*
X122389279Y-70792370D01*
X122331884Y-70831117D01*
X122297752Y-70930542D01*
X122273774Y-71119154D01*
X122260239Y-71270394D01*
X122243908Y-71585580D01*
X122072759Y-71585580D01*
X122085915Y-71459875D01*
X122115983Y-71185782D01*
X122124248Y-71114399D01*
X122142416Y-70878186D01*
X122120510Y-70712269D01*
X122047402Y-70556429D01*
X122010134Y-70496937D01*
X121872209Y-70319769D01*
X121748831Y-70265203D01*
X121610350Y-70330818D01*
X121482140Y-70453795D01*
X121425727Y-70513811D01*
X121380098Y-70569684D01*
X121342646Y-70636422D01*
X121310765Y-70729036D01*
X121281848Y-70862536D01*
X121253289Y-71051931D01*
X121222482Y-71312232D01*
X121186821Y-71658448D01*
X121143700Y-72105589D01*
X121090511Y-72668665D01*
X121082111Y-72757631D01*
X121037078Y-73229346D01*
X120990887Y-73704462D01*
X120946877Y-74149258D01*
X120908386Y-74530016D01*
X120878751Y-74813013D01*
X120877599Y-74823648D01*
X120846363Y-75131377D01*
X120834514Y-75342451D01*
X117589385Y-75342451D01*
X117614035Y-75191878D01*
X117643928Y-74968540D01*
X117678345Y-74676086D01*
X117719037Y-74303086D01*
X117767753Y-73838107D01*
X117826243Y-73269720D01*
X117896257Y-72586493D01*
X117942968Y-72131802D01*
X118083048Y-70770709D01*
X117909264Y-70508104D01*
X117735481Y-70245499D01*
X117542314Y-70398670D01*
X117483459Y-70441693D01*
X117434225Y-70476200D01*
X117392625Y-70513378D01*
X117356669Y-70564411D01*
X117324369Y-70640488D01*
X117293737Y-70752793D01*
X117262784Y-70912512D01*
X117229522Y-71130833D01*
X117191962Y-71418940D01*
X117148116Y-71788019D01*
X117095995Y-72249258D01*
X117033611Y-72813842D01*
X116958976Y-73492957D01*
X116904618Y-73986016D01*
X116731928Y-75548612D01*
X111025887Y-75548612D01*
X111057089Y-75477322D01*
X111099633Y-75331128D01*
X111137329Y-75135139D01*
X111174503Y-74867587D01*
X111215481Y-74506701D01*
X111255480Y-74120705D01*
X111306294Y-73621413D01*
X111361973Y-73076533D01*
X111417500Y-72535026D01*
X111467859Y-72045853D01*
X111495356Y-71779990D01*
X111603664Y-70735508D01*
X111447226Y-70494107D01*
X111302754Y-70315461D01*
X111173984Y-70266068D01*
X111044587Y-70345394D01*
X110944633Y-70477621D01*
X110899917Y-70553485D01*
X110861410Y-70640777D01*
X110826942Y-70753967D01*
X110794338Y-70907527D01*
X110761428Y-71115928D01*
X110726038Y-71393642D01*
X110685997Y-71755139D01*
X110639131Y-72214891D01*
X110583270Y-72787370D01*
X110557224Y-73058421D01*
X110515558Y-73492024D01*
X110471366Y-73949968D01*
X110429379Y-74383359D01*
X110394325Y-74743301D01*
X110388026Y-74807652D01*
X110358525Y-75129647D01*
X110346660Y-75352134D01*
X107059161Y-75352134D01*
X107312944Y-73131736D01*
X107582332Y-70774802D01*
X107451128Y-70590543D01*
X107304147Y-70400236D01*
X107192970Y-70316746D01*
X107085628Y-70331655D01*
X106950156Y-70436548D01*
X106931591Y-70453754D01*
X106869741Y-70510394D01*
X106819931Y-70561669D01*
X106779446Y-70622439D01*
X106745568Y-70707565D01*
X106715584Y-70831906D01*
X106686775Y-71010323D01*
X106656428Y-71257675D01*
X106621825Y-71588823D01*
X106580252Y-72018626D01*
X106528992Y-72561945D01*
X106510532Y-72757631D01*
X106465499Y-73229346D01*
X106419308Y-73704462D01*
X106375298Y-74149258D01*
X106336807Y-74530016D01*
X106307172Y-74813013D01*
X106306020Y-74823648D01*
X106274784Y-75131377D01*
X106262936Y-75342451D01*
X102819030Y-75342451D01*
X102835575Y-75239690D01*
X102861207Y-75013319D01*
X102881428Y-74808917D01*
X102889913Y-74636470D01*
X102882117Y-74471997D01*
X102853498Y-74291516D01*
X102799512Y-74071044D01*
X102715615Y-73786601D01*
X102597263Y-73414204D01*
X102503494Y-73125263D01*
X102432282Y-72901322D01*
X102337636Y-72596794D01*
X102234262Y-72259220D01*
X102172719Y-72055789D01*
X102037751Y-71625508D01*
X101923201Y-71307836D01*
X101820044Y-71084976D01*
X101719257Y-70939136D01*
X101611817Y-70852520D01*
X101548208Y-70824232D01*
X101408023Y-70792314D01*
X101313824Y-70826357D01*
X101253041Y-70945224D01*
X101213102Y-71167778D01*
X101194221Y-71355405D01*
X101182537Y-71516897D01*
X101181639Y-71661283D01*
X101010918Y-71661283D01*
X101012726Y-71642562D01*
X101038892Y-71342332D01*
X101054775Y-71113303D01*
X101060986Y-70943111D01*
X101058137Y-70819391D01*
X101046839Y-70729782D01*
X101027703Y-70661920D01*
X101001341Y-70603441D01*
X100968363Y-70541982D01*
X100955436Y-70517603D01*
X100855192Y-70356745D01*
X100764368Y-70261868D01*
X100736100Y-70251052D01*
X100644252Y-70295873D01*
X100507169Y-70408792D01*
X100446897Y-70468289D01*
X100387553Y-70530688D01*
X100338695Y-70591212D01*
X100297862Y-70663995D01*
X100262595Y-70763174D01*
X100230433Y-70902883D01*
X100198918Y-71097257D01*
X100165589Y-71360432D01*
X100127986Y-71706543D01*
X100083651Y-72149725D01*
X100030122Y-72704112D01*
X99996172Y-73058421D01*
X99954505Y-73492024D01*
X99910313Y-73949968D01*
X99868326Y-74383359D01*
X99833273Y-74743301D01*
X99826973Y-74807652D01*
X99797472Y-75129647D01*
X99785607Y-75352134D01*
X97421053Y-75352134D01*
X97421053Y-70037205D01*
X111459860Y-70037205D01*
X111803534Y-70652105D01*
X116900466Y-70652105D01*
X117187075Y-70370819D01*
X117366315Y-70178594D01*
X117444001Y-70037205D01*
X143009334Y-70037205D01*
X143353008Y-70652105D01*
X148546313Y-70652105D01*
X148784735Y-70361142D01*
X148939461Y-70155862D01*
X148996467Y-70026122D01*
X164140749Y-70026122D01*
X164180036Y-70203282D01*
X164275466Y-70392346D01*
X164421459Y-70652105D01*
X169598078Y-70652105D01*
X169872035Y-70324893D01*
X170131989Y-70014406D01*
X174702124Y-70014406D01*
X174733584Y-70186284D01*
X174825569Y-70387399D01*
X174960612Y-70652105D01*
X180076341Y-70652105D01*
X180397601Y-70325940D01*
X180718861Y-69999776D01*
X180536601Y-69724361D01*
X180354340Y-69448947D01*
X175113059Y-69448947D01*
X174901793Y-69681113D01*
X174756450Y-69862179D01*
X174702124Y-70014406D01*
X170131989Y-70014406D01*
X170145992Y-69997682D01*
X169999542Y-69723315D01*
X169853093Y-69448947D01*
X164552006Y-69448947D01*
X164340740Y-69681113D01*
X164192870Y-69867832D01*
X164140749Y-70026122D01*
X148996467Y-70026122D01*
X149007767Y-70000407D01*
X148998085Y-69850395D01*
X148918848Y-69661446D01*
X148917999Y-69659743D01*
X148812840Y-69448947D01*
X143491367Y-69448947D01*
X143250350Y-69743076D01*
X143009334Y-70037205D01*
X117444001Y-70037205D01*
X117448516Y-70028988D01*
X117442663Y-69883198D01*
X117357744Y-69702422D01*
X117346403Y-69682894D01*
X117228894Y-69482368D01*
X111943138Y-69447428D01*
X111701499Y-69742317D01*
X111459860Y-70037205D01*
X97421053Y-70037205D01*
X97421053Y-67844737D01*
X182978947Y-67844737D01*
X182978947Y-84555263D01*
G37*
X182978947Y-84555263D02*
X97421053Y-84555263D01*
X97421053Y-82854270D01*
X131243158Y-82854270D01*
X131278631Y-82984242D01*
X131371086Y-83177337D01*
X131464692Y-83335394D01*
X131508974Y-83357688D01*
X131617147Y-83375961D01*
X131799287Y-83390530D01*
X132065470Y-83401714D01*
X132425773Y-83409829D01*
X132890272Y-83415194D01*
X133469043Y-83418125D01*
X134115089Y-83418947D01*
X136711762Y-83418947D01*
X136988508Y-83088404D01*
X137163456Y-82879448D01*
X162787583Y-82879448D01*
X162966095Y-83149198D01*
X163144607Y-83418947D01*
X168235203Y-83418947D01*
X168521812Y-83137662D01*
X168675196Y-82973263D01*
X168764871Y-82854270D01*
X173353684Y-82854270D01*
X173389158Y-82984242D01*
X173481612Y-83177337D01*
X173575218Y-83335394D01*
X173619500Y-83357688D01*
X173727673Y-83375961D01*
X173909813Y-83390530D01*
X174175996Y-83401714D01*
X174536299Y-83409829D01*
X175000798Y-83415194D01*
X175579569Y-83418125D01*
X176225615Y-83418947D01*
X178822288Y-83418947D01*
X179099035Y-83088404D01*
X179375781Y-82757861D01*
X179204683Y-82486825D01*
X179033586Y-82215789D01*
X173867886Y-82215789D01*
X173610785Y-82494279D01*
X173469654Y-82660619D01*
X173376270Y-82796497D01*
X173353684Y-82854270D01*
X168764871Y-82854270D01*
X168779202Y-82835255D01*
X168808421Y-82767678D01*
X168770611Y-82644953D01*
X168680444Y-82479326D01*
X168572810Y-82329182D01*
X168509175Y-82266944D01*
X168428880Y-82255777D01*
X168232938Y-82245944D01*
X167939380Y-82237489D01*
X167566239Y-82230451D01*
X167131546Y-82224873D01*
X166653331Y-82220795D01*
X166149627Y-82218260D01*
X165638464Y-82217309D01*
X165137874Y-82217982D01*
X164665889Y-82220323D01*
X164240540Y-82224371D01*
X163879858Y-82230169D01*
X163601875Y-82237757D01*
X163424621Y-82247178D01*
X163369454Y-82255135D01*
X163272052Y-82326417D01*
X163130562Y-82467938D01*
X163027252Y-82586964D01*
X162787583Y-82879448D01*
X137163456Y-82879448D01*
X137265255Y-82757861D01*
X137094157Y-82486825D01*
X136923060Y-82215789D01*
X131757359Y-82215789D01*
X131500259Y-82494279D01*
X131359128Y-82660619D01*
X131265744Y-82796497D01*
X131243158Y-82854270D01*
X97421053Y-82854270D01*
X97421053Y-81867631D01*
X99191978Y-81867631D01*
X99195399Y-81977146D01*
X99205576Y-82055489D01*
X99221806Y-82113978D01*
X99243384Y-82163933D01*
X99262597Y-82202494D01*
X99357083Y-82344770D01*
X99449705Y-82414801D01*
X99461421Y-82416315D01*
X99548389Y-82365034D01*
X99672380Y-82233420D01*
X99757236Y-82120308D01*
X99811988Y-82038571D01*
X99857425Y-81958591D01*
X99896042Y-81865543D01*
X99930334Y-81744603D01*
X99962796Y-81580944D01*
X99995923Y-81359740D01*
X100032211Y-81066168D01*
X100074153Y-80685399D01*
X100124247Y-80202611D01*
X100184986Y-79602976D01*
X100191098Y-79542392D01*
X100244288Y-79000592D01*
X100290797Y-78498239D01*
X100318470Y-78177519D01*
X103806975Y-78177519D01*
X103813167Y-78347094D01*
X103839275Y-78532436D01*
X103889491Y-78753911D01*
X103968008Y-79031883D01*
X104079019Y-79386718D01*
X104226716Y-79838780D01*
X104305433Y-80076842D01*
X104415829Y-80416850D01*
X104532588Y-80786944D01*
X104632446Y-81113268D01*
X104642289Y-81146315D01*
X104789340Y-81537535D01*
X104960177Y-81798404D01*
X105155892Y-81930316D01*
X105270931Y-81948421D01*
X105420308Y-81892494D01*
X105475902Y-81798026D01*
X105511839Y-81707015D01*
X105537330Y-81726480D01*
X105567250Y-81856682D01*
X105630930Y-82042317D01*
X105733839Y-82225263D01*
X105848004Y-82363805D01*
X105942575Y-82416313D01*
X106022988Y-82368099D01*
X106141513Y-82247665D01*
X106181541Y-82199077D01*
X106301321Y-82042780D01*
X106386669Y-81923654D01*
X106399034Y-81904257D01*
X106404731Y-81877071D01*
X109689565Y-81877071D01*
X109699327Y-81997154D01*
X109719704Y-82087628D01*
X109750172Y-82165720D01*
X109758996Y-82184675D01*
X109860020Y-82354498D01*
X109958913Y-82402548D01*
X110078196Y-82329575D01*
X110192067Y-82199077D01*
X110262298Y-82113460D01*
X110318952Y-82044838D01*
X110364894Y-81978869D01*
X110402987Y-81901210D01*
X110413708Y-81867631D01*
X116169873Y-81867631D01*
X116173293Y-81977146D01*
X116183471Y-82055489D01*
X116199701Y-82113978D01*
X116221279Y-82163933D01*
X116240491Y-82202494D01*
X116334977Y-82344770D01*
X116427600Y-82414801D01*
X116439316Y-82416315D01*
X116526400Y-82365041D01*
X116650325Y-82233512D01*
X116734052Y-82121875D01*
X116778824Y-82059255D01*
X116816545Y-82006011D01*
X116849063Y-81950793D01*
X116878227Y-81882252D01*
X116879764Y-81877071D01*
X120250618Y-81877071D01*
X120260380Y-81997154D01*
X120280756Y-82087628D01*
X120311225Y-82165720D01*
X120320048Y-82184675D01*
X120421072Y-82354498D01*
X120519966Y-82402548D01*
X120639249Y-82329575D01*
X120753120Y-82199077D01*
X120872900Y-82042780D01*
X120958248Y-81923654D01*
X120970613Y-81904257D01*
X120987932Y-81821622D01*
X121016342Y-81621700D01*
X121053996Y-81320260D01*
X121099053Y-80933072D01*
X121149667Y-80475907D01*
X121203995Y-79964533D01*
X121250751Y-79508585D01*
X121371077Y-78316186D01*
X124848848Y-78316186D01*
X124867455Y-78495297D01*
X124910535Y-78675500D01*
X124954227Y-78816170D01*
X125165034Y-79465473D01*
X125351727Y-80044251D01*
X125509917Y-80538780D01*
X125635218Y-80935340D01*
X125723243Y-81220210D01*
X125730233Y-81243376D01*
X125863205Y-81581435D01*
X126021686Y-81811527D01*
X126196686Y-81926788D01*
X126379210Y-81920351D01*
X126508816Y-81837798D01*
X126599418Y-81764954D01*
X126628704Y-81788151D01*
X126631053Y-81846619D01*
X126666799Y-81990851D01*
X126754532Y-82162454D01*
X126864992Y-82316362D01*
X126968921Y-82407509D01*
X127000925Y-82416315D01*
X127087570Y-82365043D01*
X127211345Y-82233450D01*
X127296183Y-82120308D01*
X127350843Y-82038720D01*
X127396220Y-81958888D01*
X127434800Y-81866021D01*
X127469069Y-81745327D01*
X127481775Y-81681367D01*
X131755296Y-81681367D01*
X131776952Y-81896012D01*
X131851564Y-82000505D01*
X131983623Y-82002895D01*
X132115707Y-81946493D01*
X132189042Y-81877071D01*
X137228513Y-81877071D01*
X137238275Y-81997154D01*
X137258651Y-82087628D01*
X137289120Y-82165720D01*
X137297943Y-82184675D01*
X137398967Y-82354498D01*
X137497860Y-82402548D01*
X137617144Y-82329575D01*
X137731014Y-82199077D01*
X137801245Y-82113460D01*
X137857899Y-82044838D01*
X137903841Y-81978869D01*
X137910579Y-81965131D01*
X144478681Y-81965131D01*
X144538909Y-81991788D01*
X144696004Y-82009970D01*
X144871358Y-82015263D01*
X145264821Y-82015263D01*
X145285870Y-81867631D01*
X158280399Y-81867631D01*
X158283820Y-81977146D01*
X158293997Y-82055489D01*
X158310228Y-82113978D01*
X158331805Y-82163933D01*
X158351018Y-82202494D01*
X158445504Y-82344770D01*
X158538126Y-82414801D01*
X158549842Y-82416315D01*
X158636926Y-82365041D01*
X158760852Y-82233512D01*
X158844579Y-82121875D01*
X158889350Y-82059255D01*
X158927071Y-82006011D01*
X158959589Y-81950793D01*
X158988753Y-81882252D01*
X158990290Y-81877071D01*
X162361144Y-81877071D01*
X162370906Y-81997154D01*
X162391283Y-82087628D01*
X162421751Y-82165720D01*
X162430574Y-82184675D01*
X162531599Y-82354498D01*
X162630492Y-82402548D01*
X162749775Y-82329575D01*
X162863646Y-82199077D01*
X162983427Y-82042780D01*
X163068774Y-81923654D01*
X163081139Y-81904257D01*
X163098459Y-81821622D01*
X163123353Y-81646433D01*
X163339714Y-81646433D01*
X163343061Y-81824808D01*
X163371401Y-81922949D01*
X163403253Y-81955424D01*
X163491942Y-82004955D01*
X163564018Y-81997836D01*
X163641408Y-81958558D01*
X168736941Y-81958558D01*
X168878395Y-82187437D01*
X168989167Y-82332747D01*
X169090080Y-82411611D01*
X169111451Y-82416315D01*
X169198096Y-82365043D01*
X169321871Y-82233450D01*
X169406710Y-82120308D01*
X169461370Y-82038720D01*
X169506746Y-81958888D01*
X169544550Y-81867887D01*
X172852020Y-81867887D01*
X172855527Y-81977587D01*
X172865829Y-82056170D01*
X172882226Y-82114960D01*
X172904021Y-82165283D01*
X172924398Y-82206105D01*
X173027386Y-82356985D01*
X173137860Y-82391072D01*
X173270013Y-82305802D01*
X173425969Y-82115526D01*
X173498104Y-82006305D01*
X173554337Y-81891036D01*
X173571084Y-81838057D01*
X173854727Y-81838057D01*
X173878913Y-81933035D01*
X173905152Y-81960176D01*
X174028496Y-82010073D01*
X174161840Y-81978686D01*
X174226233Y-81946493D01*
X174299568Y-81877071D01*
X179339039Y-81877071D01*
X179348801Y-81997154D01*
X179369177Y-82087628D01*
X179399646Y-82165720D01*
X179408469Y-82184675D01*
X179509493Y-82354498D01*
X179608387Y-82402548D01*
X179727670Y-82329575D01*
X179841541Y-82199077D01*
X179911771Y-82113460D01*
X179968426Y-82044838D01*
X180014367Y-81978869D01*
X180052460Y-81901210D01*
X180085569Y-81797519D01*
X180116557Y-81653452D01*
X180148290Y-81454667D01*
X180183629Y-81186821D01*
X180225441Y-80835573D01*
X180276589Y-80386578D01*
X180339936Y-79825494D01*
X180372105Y-79542105D01*
X180421373Y-79110123D01*
X180470948Y-78676733D01*
X180516562Y-78279145D01*
X180553949Y-77954567D01*
X180570840Y-77808781D01*
X180600808Y-77531467D01*
X180608656Y-77346413D01*
X180588849Y-77213226D01*
X180535857Y-77091516D01*
X180454115Y-76956664D01*
X180337952Y-76791847D01*
X180241152Y-76687345D01*
X180205000Y-76668016D01*
X180125557Y-76715991D01*
X180005759Y-76836566D01*
X179958045Y-76893631D01*
X179915026Y-76945551D01*
X179878989Y-76991216D01*
X179848179Y-77042555D01*
X179820844Y-77111495D01*
X179795231Y-77209962D01*
X179769586Y-77349885D01*
X179742157Y-77543191D01*
X179711190Y-77801807D01*
X179674932Y-78137659D01*
X179631630Y-78562677D01*
X179579530Y-79088786D01*
X179516881Y-79727914D01*
X179467713Y-80229543D01*
X179416574Y-80756089D01*
X179378658Y-81166887D01*
X179353446Y-81479165D01*
X179340413Y-81710150D01*
X179339039Y-81877071D01*
X174299568Y-81877071D01*
X174332347Y-81846042D01*
X174448234Y-81674108D01*
X174489215Y-81595572D01*
X174604814Y-81368996D01*
X174748684Y-81107766D01*
X174823571Y-80979210D01*
X174958673Y-80745490D01*
X175083857Y-80516210D01*
X175137580Y-80411052D01*
X175219807Y-80252496D01*
X175280258Y-80153333D01*
X175288622Y-80143684D01*
X175340159Y-80069057D01*
X175427165Y-79919734D01*
X175469241Y-79842894D01*
X175600650Y-79602209D01*
X175740759Y-79350891D01*
X175764962Y-79308158D01*
X175964544Y-78944929D01*
X176103668Y-78654720D01*
X176196307Y-78399504D01*
X176256434Y-78141255D01*
X176295499Y-77864367D01*
X176323602Y-77532152D01*
X176315692Y-77319076D01*
X176268685Y-77214714D01*
X176179493Y-77208639D01*
X176111669Y-77243207D01*
X175999737Y-77350335D01*
X175888264Y-77508507D01*
X175887940Y-77509073D01*
X175814274Y-77637010D01*
X175689029Y-77853291D01*
X175527953Y-78130768D01*
X175346795Y-78442294D01*
X175290221Y-78539473D01*
X174956864Y-79112009D01*
X174684101Y-79581944D01*
X174465486Y-79962339D01*
X174294572Y-80266252D01*
X174164913Y-80506743D01*
X174070064Y-80696872D01*
X174003579Y-80849698D01*
X173959010Y-80978280D01*
X173929912Y-81095677D01*
X173909839Y-81214950D01*
X173892345Y-81349157D01*
X173888563Y-81379139D01*
X173858180Y-81661712D01*
X173854727Y-81838057D01*
X173571084Y-81838057D01*
X173600104Y-81746258D01*
X173640844Y-81548515D01*
X173681992Y-81274346D01*
X173728986Y-80900293D01*
X173751297Y-80711842D01*
X173808213Y-80226856D01*
X173873914Y-79667469D01*
X173941541Y-79092046D01*
X174004238Y-78558950D01*
X174025199Y-78380836D01*
X174165825Y-77186146D01*
X173973073Y-76947995D01*
X173841025Y-76798855D01*
X173733316Y-76701102D01*
X173704484Y-76684564D01*
X173626162Y-76720238D01*
X173514010Y-76839508D01*
X173456604Y-76919260D01*
X173396014Y-77020583D01*
X173347374Y-77133277D01*
X173306698Y-77278207D01*
X173269996Y-77476240D01*
X173233283Y-77748243D01*
X173192571Y-78115084D01*
X173152437Y-78511064D01*
X173076427Y-79277403D01*
X173012802Y-79922024D01*
X172960865Y-80456253D01*
X172919915Y-80891414D01*
X172889255Y-81238833D01*
X172868185Y-81509835D01*
X172856006Y-81715745D01*
X172852020Y-81867887D01*
X169544550Y-81867887D01*
X169545326Y-81866021D01*
X169579595Y-81745327D01*
X169612039Y-81582015D01*
X169645145Y-81361292D01*
X169681398Y-81068369D01*
X169723285Y-80688453D01*
X169773292Y-80206753D01*
X169833904Y-79608477D01*
X169841418Y-79534006D01*
X169903204Y-78917123D01*
X169951655Y-78418841D01*
X169987500Y-78024819D01*
X170011470Y-77720714D01*
X170024293Y-77492186D01*
X170026699Y-77324893D01*
X170019418Y-77204494D01*
X170003180Y-77116646D01*
X169978714Y-77047009D01*
X169969024Y-77025719D01*
X169848148Y-76806437D01*
X169738422Y-76709650D01*
X169616655Y-76728652D01*
X169459656Y-76856739D01*
X169442812Y-76873585D01*
X169389876Y-76923248D01*
X169345947Y-76962742D01*
X169309152Y-77003808D01*
X169277613Y-77058188D01*
X169249456Y-77137624D01*
X169222806Y-77253856D01*
X169195787Y-77418626D01*
X169166525Y-77643677D01*
X169133143Y-77940749D01*
X169093767Y-78321584D01*
X169046521Y-78797923D01*
X168989530Y-79381509D01*
X168920918Y-80084081D01*
X168906383Y-80232305D01*
X168736941Y-81958558D01*
X163641408Y-81958558D01*
X163665181Y-81946493D01*
X163771294Y-81846042D01*
X163887181Y-81674108D01*
X163928163Y-81595572D01*
X164043761Y-81368996D01*
X164187632Y-81107766D01*
X164262518Y-80979210D01*
X164397621Y-80745490D01*
X164522804Y-80516210D01*
X164576528Y-80411052D01*
X164658755Y-80252496D01*
X164719206Y-80153333D01*
X164727570Y-80143684D01*
X164779106Y-80069057D01*
X164866113Y-79919734D01*
X164908189Y-79842894D01*
X165039598Y-79602209D01*
X165179707Y-79350891D01*
X165203910Y-79308158D01*
X165403492Y-78944929D01*
X165542615Y-78654720D01*
X165635254Y-78399504D01*
X165695382Y-78141255D01*
X165734447Y-77864367D01*
X165762549Y-77532152D01*
X165754640Y-77319076D01*
X165707632Y-77214714D01*
X165618441Y-77208639D01*
X165550616Y-77243207D01*
X165438685Y-77350335D01*
X165327211Y-77508507D01*
X165326888Y-77509073D01*
X165253230Y-77637020D01*
X165128012Y-77853320D01*
X164966981Y-78130819D01*
X164785882Y-78442366D01*
X164729373Y-78539473D01*
X164397893Y-79108715D01*
X164126831Y-79575104D01*
X163909882Y-79951630D01*
X163740741Y-80251285D01*
X163613103Y-80487058D01*
X163520663Y-80671940D01*
X163457117Y-80818920D01*
X163416159Y-80940989D01*
X163391484Y-81051138D01*
X163376787Y-81162355D01*
X163365764Y-81287632D01*
X163359453Y-81361942D01*
X163339714Y-81646433D01*
X163123353Y-81646433D01*
X163126868Y-81621700D01*
X163164523Y-81320260D01*
X163209579Y-80933072D01*
X163260193Y-80475907D01*
X163314521Y-79964533D01*
X163361277Y-79508585D01*
X163595200Y-77190497D01*
X163461284Y-77002430D01*
X163370148Y-76854747D01*
X163327754Y-76747234D01*
X163327368Y-76741129D01*
X163290056Y-76669707D01*
X163193010Y-76694004D01*
X163058564Y-76804208D01*
X162980150Y-76893631D01*
X162937132Y-76945551D01*
X162901094Y-76991216D01*
X162870284Y-77042555D01*
X162842949Y-77111495D01*
X162817336Y-77209962D01*
X162791691Y-77349885D01*
X162764262Y-77543191D01*
X162733295Y-77801807D01*
X162697037Y-78137659D01*
X162653735Y-78562677D01*
X162601636Y-79088786D01*
X162538986Y-79727914D01*
X162489819Y-80229543D01*
X162438679Y-80756089D01*
X162400764Y-81166887D01*
X162375551Y-81479165D01*
X162362518Y-81710150D01*
X162361144Y-81877071D01*
X158990290Y-81877071D01*
X159016410Y-81789037D01*
X159044407Y-81659800D01*
X159074593Y-81483189D01*
X159108816Y-81247856D01*
X159148922Y-80942451D01*
X159196760Y-80555624D01*
X159254177Y-80076025D01*
X159323022Y-79492304D01*
X159405141Y-78793112D01*
X159453620Y-78380836D01*
X159594246Y-77186146D01*
X159401494Y-76947995D01*
X159269446Y-76798855D01*
X159161737Y-76701102D01*
X159132905Y-76684564D01*
X159054583Y-76720238D01*
X158942431Y-76839508D01*
X158885025Y-76919260D01*
X158824435Y-77020583D01*
X158775795Y-77133277D01*
X158735119Y-77278207D01*
X158698417Y-77476240D01*
X158661704Y-77748243D01*
X158620992Y-78115084D01*
X158580858Y-78511064D01*
X158504851Y-79277431D01*
X158441240Y-79922076D01*
X158389318Y-80456318D01*
X158348382Y-80891475D01*
X158317727Y-81238866D01*
X158296648Y-81509810D01*
X158284440Y-81715626D01*
X158280399Y-81867631D01*
X145285870Y-81867631D01*
X145305326Y-81731184D01*
X145322606Y-81595457D01*
X145352375Y-81345498D01*
X145392492Y-80999955D01*
X145440818Y-80577476D01*
X145495211Y-80096711D01*
X145553532Y-79576308D01*
X145581974Y-79320770D01*
X145818117Y-77194436D01*
X145666032Y-77002581D01*
X145502198Y-76827847D01*
X145367314Y-76768267D01*
X145237709Y-76816102D01*
X145197300Y-76849351D01*
X145144535Y-76896411D01*
X145099271Y-76941421D01*
X145059881Y-76995032D01*
X145024737Y-77067900D01*
X144992210Y-77170678D01*
X144960672Y-77314021D01*
X144928494Y-77508583D01*
X144894049Y-77765017D01*
X144855708Y-78093978D01*
X144811843Y-78506119D01*
X144760825Y-79012096D01*
X144701027Y-79622561D01*
X144630819Y-80348169D01*
X144576342Y-80912368D01*
X144542477Y-81265516D01*
X144513669Y-81570996D01*
X144492188Y-81804310D01*
X144480308Y-81940962D01*
X144478681Y-81965131D01*
X137910579Y-81965131D01*
X137941934Y-81901210D01*
X137975043Y-81797519D01*
X138006031Y-81653452D01*
X138037763Y-81454667D01*
X138073103Y-81186821D01*
X138114915Y-80835573D01*
X138166062Y-80386578D01*
X138229410Y-79825494D01*
X138261579Y-79542105D01*
X138310847Y-79110123D01*
X138360421Y-78676733D01*
X138406035Y-78279145D01*
X138443423Y-77954567D01*
X138460314Y-77808781D01*
X138490282Y-77531467D01*
X138498129Y-77346413D01*
X138478323Y-77213226D01*
X138425330Y-77091516D01*
X138343589Y-76956664D01*
X138227426Y-76791847D01*
X138130626Y-76687345D01*
X138094474Y-76668016D01*
X138015030Y-76715991D01*
X137895232Y-76836566D01*
X137847519Y-76893631D01*
X137804500Y-76945551D01*
X137768462Y-76991216D01*
X137737653Y-77042555D01*
X137710318Y-77111495D01*
X137684704Y-77209962D01*
X137659060Y-77349885D01*
X137631630Y-77543191D01*
X137600663Y-77801807D01*
X137564405Y-78137659D01*
X137521103Y-78562677D01*
X137469004Y-79088786D01*
X137406354Y-79727914D01*
X137357187Y-80229543D01*
X137306047Y-80756089D01*
X137268132Y-81166887D01*
X137242919Y-81479165D01*
X137229887Y-81710150D01*
X137228513Y-81877071D01*
X132189042Y-81877071D01*
X132221820Y-81846042D01*
X132337707Y-81674108D01*
X132378689Y-81595572D01*
X132494287Y-81368996D01*
X132638158Y-81107766D01*
X132713045Y-80979210D01*
X132848147Y-80745490D01*
X132973331Y-80516210D01*
X133027054Y-80411052D01*
X133109281Y-80252496D01*
X133169732Y-80153333D01*
X133178096Y-80143684D01*
X133229632Y-80069057D01*
X133316639Y-79919734D01*
X133358715Y-79842894D01*
X133490124Y-79602209D01*
X133630233Y-79350891D01*
X133654436Y-79308158D01*
X133854018Y-78944929D01*
X133993142Y-78654720D01*
X134085780Y-78399504D01*
X134145908Y-78141255D01*
X134184973Y-77864367D01*
X134213076Y-77532152D01*
X134205166Y-77319076D01*
X134158158Y-77214714D01*
X134068967Y-77208639D01*
X134001142Y-77243207D01*
X133889211Y-77350335D01*
X133777737Y-77508507D01*
X133777414Y-77509073D01*
X133703748Y-77637010D01*
X133578502Y-77853291D01*
X133417427Y-78130768D01*
X133236268Y-78442294D01*
X133179694Y-78539473D01*
X132846041Y-79112600D01*
X132573071Y-79583070D01*
X132354340Y-79963833D01*
X132183404Y-80267843D01*
X132053820Y-80508051D01*
X131959143Y-80697408D01*
X131892929Y-80848866D01*
X131848736Y-80975376D01*
X131820118Y-81089892D01*
X131800633Y-81205363D01*
X131783836Y-81334743D01*
X131782109Y-81348527D01*
X131755296Y-81681367D01*
X127481775Y-81681367D01*
X127501513Y-81582015D01*
X127534618Y-81361292D01*
X127570872Y-81068369D01*
X127612758Y-80688453D01*
X127662765Y-80206753D01*
X127723378Y-79608477D01*
X127730891Y-79534006D01*
X127792678Y-78917123D01*
X127841129Y-78418841D01*
X127876974Y-78024819D01*
X127900944Y-77720714D01*
X127913767Y-77492186D01*
X127916173Y-77324893D01*
X127908892Y-77204494D01*
X127892654Y-77116646D01*
X127868187Y-77047009D01*
X127858498Y-77025719D01*
X127737651Y-76806472D01*
X127627823Y-76709663D01*
X127505615Y-76728553D01*
X127347628Y-76856403D01*
X127330294Y-76873585D01*
X127101846Y-77102368D01*
X127002460Y-78138421D01*
X126959410Y-78588183D01*
X126912699Y-79077826D01*
X126867549Y-79552511D01*
X126829182Y-79957400D01*
X126824215Y-80010000D01*
X126778635Y-80429752D01*
X126732981Y-80727186D01*
X126687985Y-80899382D01*
X126644379Y-80943420D01*
X126607611Y-80873414D01*
X126571827Y-80762087D01*
X126499396Y-80544838D01*
X126397275Y-80242114D01*
X126272424Y-79874365D01*
X126131802Y-79462040D01*
X125982367Y-79025587D01*
X125831079Y-78585456D01*
X125688269Y-78171842D01*
X125574579Y-77842654D01*
X125478107Y-77561865D01*
X125406539Y-77351960D01*
X125367562Y-77235427D01*
X125362690Y-77219342D01*
X125303332Y-77207454D01*
X125166401Y-77202631D01*
X125035697Y-77218159D01*
X124970305Y-77290606D01*
X124935241Y-77453289D01*
X124883204Y-77828395D01*
X124854252Y-78104956D01*
X124848848Y-78316186D01*
X121371077Y-78316186D01*
X121484673Y-77190497D01*
X121350758Y-77002430D01*
X121259622Y-76854747D01*
X121217228Y-76747234D01*
X121216842Y-76741129D01*
X121179530Y-76669707D01*
X121082483Y-76694004D01*
X120948038Y-76804208D01*
X120869624Y-76893631D01*
X120826605Y-76945551D01*
X120790568Y-76991216D01*
X120759758Y-77042555D01*
X120732423Y-77111495D01*
X120706810Y-77209962D01*
X120681165Y-77349885D01*
X120653736Y-77543191D01*
X120622769Y-77801807D01*
X120586511Y-78137659D01*
X120543208Y-78562677D01*
X120491109Y-79088786D01*
X120428460Y-79727914D01*
X120379292Y-80229543D01*
X120328153Y-80756089D01*
X120290237Y-81166887D01*
X120265025Y-81479165D01*
X120251992Y-81710150D01*
X120250618Y-81877071D01*
X116879764Y-81877071D01*
X116905884Y-81789037D01*
X116933881Y-81659800D01*
X116964067Y-81483189D01*
X116998289Y-81247856D01*
X117038396Y-80942451D01*
X117086233Y-80555624D01*
X117143651Y-80076025D01*
X117212495Y-79492304D01*
X117294615Y-78793112D01*
X117343093Y-78380836D01*
X117483720Y-77186146D01*
X117290968Y-76947995D01*
X117158920Y-76798855D01*
X117051211Y-76701102D01*
X117022378Y-76684564D01*
X116944056Y-76720238D01*
X116831905Y-76839508D01*
X116774498Y-76919260D01*
X116713909Y-77020583D01*
X116665269Y-77133277D01*
X116624592Y-77278207D01*
X116587891Y-77476240D01*
X116551178Y-77748243D01*
X116510466Y-78115084D01*
X116470332Y-78511064D01*
X116394325Y-79277431D01*
X116330713Y-79922076D01*
X116278792Y-80456318D01*
X116237856Y-80891475D01*
X116207201Y-81238866D01*
X116186122Y-81509810D01*
X116173914Y-81715626D01*
X116169873Y-81867631D01*
X110413708Y-81867631D01*
X110436095Y-81797519D01*
X110467084Y-81653452D01*
X110498816Y-81454667D01*
X110534156Y-81186821D01*
X110575967Y-80835573D01*
X110627115Y-80386578D01*
X110690462Y-79825494D01*
X110722631Y-79542105D01*
X110771900Y-79110123D01*
X110821474Y-78676733D01*
X110867088Y-78279145D01*
X110904475Y-77954567D01*
X110921366Y-77808781D01*
X110951335Y-77531467D01*
X110959182Y-77346413D01*
X110939376Y-77213226D01*
X110886383Y-77091516D01*
X110804642Y-76956664D01*
X110688479Y-76791847D01*
X110591678Y-76687345D01*
X110555526Y-76668016D01*
X110476083Y-76715991D01*
X110356285Y-76836566D01*
X110308571Y-76893631D01*
X110265553Y-76945551D01*
X110229515Y-76991216D01*
X110198705Y-77042555D01*
X110171370Y-77111495D01*
X110145757Y-77209962D01*
X110120112Y-77349885D01*
X110092683Y-77543191D01*
X110061716Y-77801807D01*
X110025458Y-78137659D01*
X109982156Y-78562677D01*
X109930057Y-79088786D01*
X109867407Y-79727914D01*
X109818240Y-80229543D01*
X109767100Y-80756089D01*
X109729185Y-81166887D01*
X109703972Y-81479165D01*
X109690939Y-81710150D01*
X109689565Y-81877071D01*
X106404731Y-81877071D01*
X106416353Y-81821622D01*
X106444763Y-81621700D01*
X106482417Y-81320260D01*
X106527474Y-80933072D01*
X106578088Y-80475907D01*
X106632416Y-79964533D01*
X106679172Y-79508585D01*
X106913094Y-77190497D01*
X106779179Y-77002430D01*
X106688043Y-76854747D01*
X106645649Y-76747234D01*
X106645263Y-76741129D01*
X106605770Y-76669809D01*
X106502201Y-76691214D01*
X106356923Y-76796090D01*
X106251135Y-76904168D01*
X106129151Y-77046545D01*
X106054571Y-77140238D01*
X106043684Y-77158351D01*
X106037263Y-77226940D01*
X106019205Y-77410443D01*
X105991313Y-77690766D01*
X105955392Y-78049817D01*
X105913248Y-78469503D01*
X105876579Y-78833628D01*
X105830159Y-79303007D01*
X105788695Y-79739489D01*
X105754069Y-80121837D01*
X105728166Y-80428814D01*
X105712866Y-80639183D01*
X105709474Y-80718392D01*
X105693916Y-80889720D01*
X105650157Y-80934601D01*
X105582565Y-80856248D01*
X105495509Y-80657869D01*
X105450402Y-80528026D01*
X105387798Y-80340485D01*
X105290069Y-80051916D01*
X105165847Y-79687607D01*
X105023764Y-79272852D01*
X104872452Y-78832941D01*
X104817339Y-78673158D01*
X104657731Y-78211828D01*
X104534244Y-77861346D01*
X104439379Y-77606190D01*
X104365639Y-77430838D01*
X104305527Y-77319770D01*
X104251543Y-77257465D01*
X104196190Y-77228402D01*
X104131972Y-77217059D01*
X104112996Y-77215107D01*
X103969000Y-77206474D01*
X103904475Y-77214159D01*
X103904229Y-77215107D01*
X103896803Y-77286388D01*
X103877425Y-77458553D01*
X103849704Y-77699706D01*
X103837568Y-77804210D01*
X103816506Y-78003346D01*
X103806975Y-78177519D01*
X100318470Y-78177519D01*
X100329341Y-78051534D01*
X100358635Y-77676680D01*
X100377397Y-77389880D01*
X100384343Y-77207335D01*
X100380827Y-77148005D01*
X100305802Y-76994999D01*
X100199439Y-76835434D01*
X100093610Y-76712230D01*
X100024291Y-76667894D01*
X99953808Y-76718975D01*
X99846415Y-76848132D01*
X99793755Y-76923564D01*
X99733999Y-77024156D01*
X99685843Y-77137693D01*
X99645342Y-77284962D01*
X99608549Y-77486751D01*
X99571519Y-77763849D01*
X99530307Y-78137043D01*
X99492437Y-78511064D01*
X99416430Y-79277431D01*
X99352819Y-79922076D01*
X99300897Y-80456318D01*
X99259961Y-80891475D01*
X99229306Y-81238866D01*
X99208227Y-81509810D01*
X99196019Y-81715626D01*
X99191978Y-81867631D01*
X97421053Y-81867631D01*
X97421053Y-76416063D01*
X110791434Y-76416063D01*
X110924138Y-76602429D01*
X111014792Y-76749613D01*
X111056531Y-76856574D01*
X111056842Y-76862029D01*
X111116267Y-76894047D01*
X111297141Y-76916736D01*
X111603365Y-76930374D01*
X112038838Y-76935243D01*
X112073366Y-76935263D01*
X113089890Y-76935263D01*
X113343366Y-76687750D01*
X113505643Y-76501165D01*
X114146997Y-76501165D01*
X114237983Y-76694791D01*
X114269815Y-76741129D01*
X114408050Y-76935263D01*
X116298311Y-76935263D01*
X116551787Y-76687750D01*
X116729241Y-76483715D01*
X116757653Y-76405713D01*
X135168463Y-76405713D01*
X135198394Y-76518600D01*
X135257859Y-76603496D01*
X135348552Y-76746063D01*
X135385882Y-76851710D01*
X135421479Y-76886352D01*
X135536583Y-76910748D01*
X135745811Y-76926153D01*
X136063776Y-76933824D01*
X136358338Y-76935263D01*
X137329307Y-76935263D01*
X137631728Y-76632842D01*
X137848507Y-76416063D01*
X152901960Y-76416063D01*
X153034664Y-76602429D01*
X153125318Y-76749613D01*
X153167058Y-76856574D01*
X153167368Y-76862029D01*
X153226793Y-76894047D01*
X153407667Y-76916736D01*
X153713891Y-76930374D01*
X154149365Y-76935243D01*
X154183892Y-76935263D01*
X155200416Y-76935263D01*
X155453892Y-76687750D01*
X155616169Y-76501165D01*
X156257523Y-76501165D01*
X156348509Y-76694791D01*
X156380341Y-76741129D01*
X156518577Y-76935263D01*
X158408837Y-76935263D01*
X158662313Y-76687750D01*
X158839768Y-76483715D01*
X158903583Y-76308518D01*
X158857700Y-76127384D01*
X158745282Y-75955651D01*
X158574775Y-75732105D01*
X157659098Y-75734231D01*
X157270624Y-75737043D01*
X156990533Y-75748381D01*
X156793526Y-75775735D01*
X156654306Y-75826598D01*
X156547574Y-75908462D01*
X156448032Y-76028818D01*
X156390046Y-76110055D01*
X156271122Y-76322271D01*
X156257523Y-76501165D01*
X155616169Y-76501165D01*
X155631346Y-76483715D01*
X155695162Y-76308518D01*
X155649279Y-76127384D01*
X155536861Y-75955651D01*
X155366354Y-75732105D01*
X154450677Y-75732187D01*
X154058040Y-75734486D01*
X153771790Y-75747694D01*
X153564639Y-75781395D01*
X153409297Y-75845173D01*
X153278474Y-75948613D01*
X153144880Y-76101300D01*
X153049015Y-76224479D01*
X152901960Y-76416063D01*
X137848507Y-76416063D01*
X137934149Y-76330422D01*
X137797074Y-76137919D01*
X137704900Y-75991193D01*
X137660673Y-75886828D01*
X137660000Y-75879333D01*
X137637886Y-75823539D01*
X137560256Y-75783278D01*
X137410176Y-75756296D01*
X137170714Y-75740337D01*
X136824937Y-75733148D01*
X136554343Y-75732105D01*
X136193261Y-75732915D01*
X135940605Y-75738241D01*
X135771119Y-75752430D01*
X135659546Y-75779827D01*
X135580627Y-75824778D01*
X135509106Y-75891627D01*
X135485962Y-75915921D01*
X135341401Y-76088939D01*
X135226908Y-76259442D01*
X135221549Y-76269285D01*
X135168463Y-76405713D01*
X116757653Y-76405713D01*
X116793057Y-76308518D01*
X116747174Y-76127384D01*
X116634756Y-75955651D01*
X116464249Y-75732105D01*
X115548572Y-75734231D01*
X115160098Y-75737043D01*
X114880007Y-75748381D01*
X114683000Y-75775735D01*
X114543779Y-75826598D01*
X114437047Y-75908462D01*
X114337506Y-76028818D01*
X114279519Y-76110055D01*
X114160596Y-76322271D01*
X114146997Y-76501165D01*
X113505643Y-76501165D01*
X113520820Y-76483715D01*
X113584635Y-76308518D01*
X113538753Y-76127384D01*
X113426335Y-75955651D01*
X113255828Y-75732105D01*
X112340151Y-75732187D01*
X111947513Y-75734486D01*
X111661264Y-75747694D01*
X111454113Y-75781395D01*
X111298770Y-75845173D01*
X111167947Y-75948613D01*
X111034353Y-76101300D01*
X110938489Y-76224479D01*
X110791434Y-76416063D01*
X97421053Y-76416063D01*
X97421053Y-75352134D01*
X99785607Y-75352134D01*
X99793761Y-75508418D01*
X99824313Y-75631802D01*
X99879647Y-75755590D01*
X99897195Y-75789667D01*
X99999644Y-75955197D01*
X100095484Y-76014579D01*
X100208086Y-75965508D01*
X100360816Y-75805676D01*
X100415796Y-75738469D01*
X100478419Y-75657562D01*
X100528570Y-75577323D01*
X100569680Y-75480150D01*
X100605179Y-75348440D01*
X100638497Y-75164592D01*
X100673064Y-74911004D01*
X100712310Y-74570073D01*
X100759665Y-74124197D01*
X100793007Y-73802748D01*
X100866418Y-73094084D01*
X100927100Y-72506074D01*
X100975666Y-72026354D01*
X101010918Y-71661283D01*
X101181639Y-71661283D01*
X101196454Y-71810457D01*
X101231907Y-71986317D01*
X101292921Y-72210758D01*
X101384423Y-72505678D01*
X101511337Y-72892972D01*
X101599818Y-73158684D01*
X101740346Y-73583208D01*
X101872176Y-73987928D01*
X101987146Y-74347278D01*
X102077091Y-74635693D01*
X102133847Y-74827608D01*
X102139880Y-74849825D01*
X102244607Y-75196352D01*
X102347821Y-75424793D01*
X102459418Y-75550260D01*
X102589293Y-75587862D01*
X102621848Y-75585781D01*
X102710735Y-75568607D01*
X102768267Y-75523660D01*
X102806021Y-75423252D01*
X102819030Y-75342451D01*
X106262936Y-75342451D01*
X106273399Y-75492880D01*
X106309099Y-75618673D01*
X106372959Y-75755843D01*
X106383358Y-75776148D01*
X106477167Y-75943825D01*
X106549824Y-76047592D01*
X106572219Y-76064249D01*
X106631173Y-76014113D01*
X106740323Y-75887470D01*
X106827699Y-75775426D01*
X107043556Y-75488669D01*
X107059161Y-75352134D01*
X110346660Y-75352134D01*
X110354813Y-75508418D01*
X110385366Y-75631802D01*
X110440699Y-75755590D01*
X110458248Y-75789667D01*
X110557434Y-75943882D01*
X110647229Y-76024861D01*
X110677381Y-76028185D01*
X110756379Y-75957658D01*
X110870705Y-75811142D01*
X110940151Y-75707401D01*
X111005370Y-75595490D01*
X111025887Y-75548612D01*
X116731928Y-75548612D01*
X116903228Y-75807464D01*
X117014516Y-75960633D01*
X117100377Y-76052386D01*
X117123711Y-76064249D01*
X117188271Y-76013915D01*
X117300743Y-75887048D01*
X117384500Y-75780170D01*
X117431713Y-75720584D01*
X117471201Y-75671898D01*
X117504717Y-75622680D01*
X117534008Y-75561500D01*
X117560825Y-75476927D01*
X117586917Y-75357529D01*
X117589385Y-75342451D01*
X120834514Y-75342451D01*
X120844978Y-75492880D01*
X120880678Y-75618673D01*
X120944538Y-75755843D01*
X120954936Y-75776148D01*
X121049905Y-75944419D01*
X121125217Y-76049135D01*
X121149322Y-76066315D01*
X121213818Y-76018460D01*
X121326733Y-75896860D01*
X121393731Y-75815658D01*
X121521959Y-75650443D01*
X121616577Y-75521519D01*
X121639381Y-75486996D01*
X121660853Y-75400663D01*
X121691792Y-75196613D01*
X121732478Y-74872354D01*
X121783192Y-74425396D01*
X121844213Y-73853246D01*
X121915823Y-73153415D01*
X121998302Y-72323411D01*
X122017979Y-72122631D01*
X122051262Y-71790988D01*
X122072759Y-71585580D01*
X122243908Y-71585580D01*
X122261342Y-71856324D01*
X122320353Y-72135429D01*
X122428751Y-72475701D01*
X122445637Y-72523684D01*
X122498804Y-72680192D01*
X122584134Y-72939029D01*
X122693458Y-73275066D01*
X122818606Y-73663179D01*
X122951407Y-74078239D01*
X122967225Y-74127894D01*
X123096040Y-74526996D01*
X123214999Y-74885333D01*
X123316989Y-75182285D01*
X123394897Y-75397235D01*
X123441611Y-75509563D01*
X123446838Y-75518247D01*
X123556535Y-75577194D01*
X123684278Y-75585090D01*
X123769879Y-75567399D01*
X123820587Y-75524236D01*
X127297792Y-75524236D01*
X127437030Y-75791369D01*
X127536004Y-75944959D01*
X127625641Y-76025147D01*
X127655276Y-76028185D01*
X127733996Y-75957757D01*
X127848494Y-75811007D01*
X127920660Y-75703268D01*
X127992061Y-75579232D01*
X128010271Y-75536165D01*
X137787847Y-75536165D01*
X137924450Y-75728006D01*
X138016645Y-75876796D01*
X138060474Y-75985524D01*
X138061053Y-75993081D01*
X138101242Y-76061142D01*
X138201125Y-76034534D01*
X138283678Y-75967825D01*
X138404514Y-75835108D01*
X138499738Y-75694237D01*
X138575082Y-75524479D01*
X138636276Y-75305100D01*
X138640376Y-75282589D01*
X146170955Y-75282589D01*
X146171198Y-75471137D01*
X146189272Y-75542750D01*
X146286605Y-75596771D01*
X146416337Y-75551073D01*
X146489509Y-75481447D01*
X146581314Y-75352134D01*
X152457186Y-75352134D01*
X152465340Y-75508418D01*
X152495892Y-75631802D01*
X152551225Y-75755590D01*
X152568774Y-75789667D01*
X152667960Y-75943882D01*
X152757755Y-76024861D01*
X152787907Y-76028185D01*
X152866905Y-75957658D01*
X152981232Y-75811142D01*
X153050677Y-75707401D01*
X153115897Y-75595490D01*
X153136413Y-75548612D01*
X158842455Y-75548612D01*
X159013755Y-75807464D01*
X159125042Y-75960633D01*
X159210903Y-76052386D01*
X159234238Y-76064249D01*
X159298797Y-76013915D01*
X159411269Y-75887048D01*
X159495026Y-75780170D01*
X159542239Y-75720584D01*
X159581728Y-75671898D01*
X159615243Y-75622680D01*
X159644534Y-75561500D01*
X159671351Y-75476927D01*
X159697444Y-75357529D01*
X159699912Y-75342451D01*
X162945041Y-75342451D01*
X162955505Y-75492880D01*
X162991204Y-75618673D01*
X163055064Y-75755843D01*
X163065463Y-75776148D01*
X163160431Y-75944419D01*
X163235743Y-76049135D01*
X163259848Y-76066315D01*
X163324344Y-76018460D01*
X163437259Y-75896860D01*
X163504258Y-75815658D01*
X163632485Y-75650443D01*
X163727104Y-75521519D01*
X163749907Y-75486996D01*
X163761633Y-75437470D01*
X167219948Y-75437470D01*
X167239786Y-75535065D01*
X167343314Y-75594220D01*
X167482343Y-75562128D01*
X167505000Y-75547266D01*
X167532960Y-75524984D01*
X167533627Y-75524236D01*
X169408318Y-75524236D01*
X169547556Y-75791369D01*
X169646530Y-75944959D01*
X169736167Y-76025147D01*
X169765802Y-76028185D01*
X169844522Y-75957757D01*
X169959021Y-75811007D01*
X170031187Y-75703268D01*
X170102588Y-75579232D01*
X170158761Y-75446386D01*
X170187769Y-75342451D01*
X173506093Y-75342451D01*
X173516557Y-75492880D01*
X173552257Y-75618673D01*
X173616117Y-75755843D01*
X173626515Y-75776148D01*
X173720325Y-75943825D01*
X173792982Y-76047592D01*
X173815377Y-76064249D01*
X173874400Y-76014083D01*
X173983119Y-75887598D01*
X174066605Y-75780170D01*
X174113914Y-75720437D01*
X174153474Y-75671587D01*
X174187041Y-75622159D01*
X174216372Y-75560694D01*
X174239268Y-75488244D01*
X177729825Y-75488244D01*
X177738746Y-75542750D01*
X177836078Y-75596771D01*
X177965811Y-75551073D01*
X177981478Y-75536165D01*
X179898373Y-75536165D01*
X180034976Y-75728006D01*
X180127171Y-75876796D01*
X180171000Y-75985524D01*
X180171579Y-75993081D01*
X180211768Y-76061142D01*
X180311652Y-76034534D01*
X180394204Y-75967825D01*
X180515040Y-75835108D01*
X180610264Y-75694237D01*
X180685608Y-75524479D01*
X180746802Y-75305100D01*
X180799578Y-75015367D01*
X180849666Y-74634548D01*
X180902797Y-74141908D01*
X180905061Y-74119647D01*
X180955909Y-73620014D01*
X181011674Y-73074309D01*
X181067318Y-72531682D01*
X181117803Y-72041282D01*
X181145219Y-71776201D01*
X181253918Y-70727928D01*
X181064161Y-70490113D01*
X180874403Y-70252298D01*
X180657932Y-70468912D01*
X180610720Y-70512655D01*
X180571044Y-70547915D01*
X180537140Y-70585533D01*
X180507246Y-70636354D01*
X180479600Y-70711220D01*
X180452440Y-70820976D01*
X180424004Y-70976464D01*
X180392528Y-71188528D01*
X180356252Y-71468010D01*
X180313412Y-71825756D01*
X180262247Y-72272606D01*
X180200993Y-72819406D01*
X180127890Y-73476998D01*
X180041175Y-74256226D01*
X180038457Y-74280582D01*
X179898373Y-75536165D01*
X177981478Y-75536165D01*
X178038982Y-75481447D01*
X178145065Y-75332025D01*
X178228318Y-75197368D01*
X178301714Y-75068910D01*
X178422081Y-74858321D01*
X178570028Y-74599522D01*
X178667702Y-74428684D01*
X179013586Y-73823399D01*
X179299369Y-73320895D01*
X179531245Y-72907865D01*
X179715408Y-72571003D01*
X179858053Y-72297002D01*
X179965375Y-72072556D01*
X180043566Y-71884357D01*
X180098823Y-71719099D01*
X180137338Y-71563475D01*
X180165306Y-71404178D01*
X180188922Y-71227902D01*
X180200120Y-71136710D01*
X180243025Y-70785789D01*
X180043399Y-70785789D01*
X179927647Y-70800629D01*
X179831041Y-70862100D01*
X179726132Y-70995634D01*
X179606623Y-71190423D01*
X179488486Y-71400456D01*
X179403532Y-71567643D01*
X179369523Y-71656935D01*
X179369474Y-71658318D01*
X179322250Y-71720296D01*
X179310427Y-71721579D01*
X179242767Y-71776028D01*
X179213100Y-71838552D01*
X179157643Y-71962046D01*
X179058923Y-72146551D01*
X178995325Y-72256315D01*
X178862114Y-72481381D01*
X178734569Y-72699750D01*
X178691599Y-72774342D01*
X178566175Y-72993605D01*
X178443022Y-73208815D01*
X178336214Y-73393545D01*
X178200027Y-73626695D01*
X178121466Y-73760263D01*
X178003353Y-73968372D01*
X177909450Y-74147938D01*
X177873058Y-74228158D01*
X177840308Y-74360988D01*
X177806048Y-74574238D01*
X177774072Y-74830750D01*
X177748179Y-75093361D01*
X177732164Y-75324913D01*
X177729825Y-75488244D01*
X174239268Y-75488244D01*
X174243223Y-75475732D01*
X174269351Y-75355814D01*
X174296513Y-75189480D01*
X174326463Y-74965270D01*
X174360960Y-74671724D01*
X174401758Y-74297383D01*
X174450616Y-73830788D01*
X174509288Y-73260478D01*
X174579532Y-72574994D01*
X174623600Y-72146042D01*
X174762207Y-70799190D01*
X174619355Y-70525121D01*
X174517470Y-70361616D01*
X174424222Y-70263585D01*
X174392682Y-70251052D01*
X174300046Y-70298718D01*
X174172831Y-70417377D01*
X174135831Y-70459916D01*
X174083791Y-70523147D01*
X174041496Y-70583530D01*
X174006421Y-70656237D01*
X173976045Y-70756439D01*
X173947843Y-70899310D01*
X173919291Y-71100021D01*
X173887868Y-71373744D01*
X173851049Y-71735652D01*
X173806311Y-72200916D01*
X173753690Y-72757631D01*
X173708657Y-73229346D01*
X173662466Y-73704462D01*
X173618456Y-74149258D01*
X173579965Y-74530016D01*
X173550330Y-74813013D01*
X173549178Y-74823648D01*
X173517942Y-75131377D01*
X173506093Y-75342451D01*
X170187769Y-75342451D01*
X170205074Y-75280452D01*
X170246897Y-75057151D01*
X170289598Y-74752205D01*
X170338547Y-74341334D01*
X170345104Y-74283677D01*
X170399917Y-73802631D01*
X170463677Y-73246923D01*
X170529693Y-72674654D01*
X170591273Y-72143929D01*
X170611822Y-71967769D01*
X170750999Y-70776855D01*
X170539342Y-70509615D01*
X170327684Y-70242376D01*
X170109688Y-70453666D01*
X170028333Y-70535989D01*
X169965951Y-70617297D01*
X169917860Y-70717774D01*
X169879379Y-70857606D01*
X169845825Y-71056979D01*
X169812518Y-71336079D01*
X169774776Y-71715091D01*
X169745854Y-72022368D01*
X169719577Y-72300712D01*
X169683546Y-72678568D01*
X169640979Y-73122396D01*
X169595094Y-73598655D01*
X169549108Y-74073803D01*
X169545836Y-74107513D01*
X169408318Y-75524236D01*
X167533627Y-75524236D01*
X167563050Y-75491286D01*
X167605583Y-75429037D01*
X167670872Y-75321102D01*
X167769230Y-75150345D01*
X167910971Y-74899631D01*
X168106408Y-74551825D01*
X168138014Y-74495526D01*
X168483706Y-73880141D01*
X168770258Y-73369676D01*
X169003372Y-72952145D01*
X169188746Y-72615562D01*
X169332082Y-72347941D01*
X169439081Y-72137295D01*
X169515442Y-71971637D01*
X169566867Y-71838982D01*
X169599055Y-71727343D01*
X169617709Y-71624734D01*
X169628527Y-71519169D01*
X169637210Y-71398660D01*
X169642242Y-71332629D01*
X169687359Y-70776574D01*
X169474817Y-70797892D01*
X169349003Y-70835498D01*
X169226241Y-70932966D01*
X169093750Y-71106871D01*
X168938744Y-71373788D01*
X168762419Y-71721579D01*
X168680192Y-71880135D01*
X168619741Y-71979298D01*
X168611377Y-71988947D01*
X168560372Y-72063912D01*
X168474896Y-72213871D01*
X168434370Y-72289737D01*
X168305311Y-72529811D01*
X168165799Y-72780710D01*
X168140841Y-72824473D01*
X168003810Y-73065385D01*
X167842246Y-73353770D01*
X167640718Y-73717264D01*
X167510942Y-73952518D01*
X167439523Y-74128642D01*
X167369347Y-74379565D01*
X167306357Y-74670598D01*
X167256499Y-74967053D01*
X167225714Y-75234240D01*
X167219948Y-75437470D01*
X163761633Y-75437470D01*
X163770792Y-75398791D01*
X163801459Y-75199374D01*
X163839073Y-74910621D01*
X163880799Y-74554406D01*
X163923804Y-74152605D01*
X163927460Y-74116733D01*
X163978239Y-73617792D01*
X164033912Y-73072990D01*
X164089442Y-72531480D01*
X164139792Y-72042415D01*
X164166935Y-71779990D01*
X164275242Y-70735508D01*
X164118805Y-70494107D01*
X163981703Y-70318528D01*
X163858501Y-70265158D01*
X163719755Y-70331739D01*
X163592666Y-70453795D01*
X163536254Y-70513811D01*
X163490625Y-70569684D01*
X163453172Y-70636422D01*
X163421291Y-70729036D01*
X163392374Y-70862536D01*
X163363815Y-71051931D01*
X163333009Y-71312232D01*
X163297348Y-71658448D01*
X163254226Y-72105589D01*
X163201038Y-72668665D01*
X163192637Y-72757631D01*
X163147604Y-73229346D01*
X163101414Y-73704462D01*
X163057404Y-74149258D01*
X163018912Y-74530016D01*
X162989277Y-74813013D01*
X162988125Y-74823648D01*
X162956889Y-75131377D01*
X162945041Y-75342451D01*
X159699912Y-75342451D01*
X159724561Y-75191878D01*
X159754454Y-74968540D01*
X159788871Y-74676086D01*
X159829563Y-74303086D01*
X159878279Y-73838107D01*
X159936769Y-73269720D01*
X160006783Y-72586493D01*
X160053494Y-72131802D01*
X160193574Y-70770709D01*
X160019791Y-70508104D01*
X159846007Y-70245499D01*
X159652840Y-70398670D01*
X159593985Y-70441693D01*
X159544751Y-70476200D01*
X159503151Y-70513378D01*
X159467195Y-70564411D01*
X159434895Y-70640488D01*
X159404263Y-70752793D01*
X159373310Y-70912512D01*
X159340048Y-71130833D01*
X159302488Y-71418940D01*
X159258642Y-71788019D01*
X159206522Y-72249258D01*
X159144138Y-72813842D01*
X159069502Y-73492957D01*
X159015144Y-73986016D01*
X158842455Y-75548612D01*
X153136413Y-75548612D01*
X153167615Y-75477322D01*
X153210160Y-75331128D01*
X153247856Y-75135139D01*
X153285030Y-74867587D01*
X153326008Y-74506701D01*
X153366006Y-74120705D01*
X153416820Y-73621413D01*
X153472499Y-73076533D01*
X153528027Y-72535026D01*
X153578385Y-72045853D01*
X153605882Y-71779990D01*
X153714190Y-70735508D01*
X153557753Y-70494107D01*
X153413280Y-70315461D01*
X153284510Y-70266068D01*
X153155113Y-70345394D01*
X153055160Y-70477621D01*
X153010443Y-70553485D01*
X152971937Y-70640777D01*
X152937468Y-70753967D01*
X152904864Y-70907527D01*
X152871954Y-71115928D01*
X152836564Y-71393642D01*
X152796523Y-71755139D01*
X152749658Y-72214891D01*
X152693796Y-72787370D01*
X152667751Y-73058421D01*
X152626084Y-73492024D01*
X152581892Y-73949968D01*
X152539905Y-74383359D01*
X152504852Y-74743301D01*
X152498552Y-74807652D01*
X152469051Y-75129647D01*
X152457186Y-75352134D01*
X146581314Y-75352134D01*
X146595591Y-75332025D01*
X146678844Y-75197368D01*
X146752241Y-75068910D01*
X146872607Y-74858321D01*
X147020554Y-74599522D01*
X147118228Y-74428684D01*
X147469243Y-73814314D01*
X147759781Y-73302714D01*
X147995659Y-72880564D01*
X148182695Y-72534547D01*
X148326708Y-72251343D01*
X148433515Y-72017635D01*
X148508934Y-71820103D01*
X148558782Y-71645428D01*
X148588878Y-71480293D01*
X148605039Y-71311379D01*
X148613083Y-71125367D01*
X148616465Y-70998791D01*
X148609844Y-70849004D01*
X148553436Y-70794774D01*
X148410114Y-70798265D01*
X148219132Y-70861165D01*
X148087586Y-71019737D01*
X147993915Y-71189751D01*
X147868117Y-71418184D01*
X147774686Y-71587894D01*
X147635880Y-71839115D01*
X147496192Y-72090454D01*
X147422113Y-72222894D01*
X147288219Y-72464072D01*
X147150784Y-72715723D01*
X147128189Y-72757631D01*
X147034751Y-72925612D01*
X146966411Y-73037987D01*
X146951053Y-73058421D01*
X146897739Y-73140437D01*
X146794298Y-73324685D01*
X146650204Y-73593734D01*
X146474932Y-73930154D01*
X146435838Y-74006196D01*
X146366244Y-74188413D01*
X146299301Y-74442425D01*
X146240665Y-74732969D01*
X146195997Y-75024778D01*
X146170955Y-75282589D01*
X138640376Y-75282589D01*
X138689052Y-75015367D01*
X138739140Y-74634548D01*
X138792271Y-74141908D01*
X138794534Y-74119647D01*
X138845383Y-73620014D01*
X138901148Y-73074309D01*
X138956791Y-72531682D01*
X139007277Y-72041282D01*
X139034693Y-71776201D01*
X139143391Y-70727928D01*
X138763877Y-70252298D01*
X138547405Y-70468912D01*
X138500194Y-70512655D01*
X138460517Y-70547915D01*
X138426613Y-70585533D01*
X138396720Y-70636354D01*
X138369074Y-70711220D01*
X138341914Y-70820976D01*
X138313477Y-70976464D01*
X138282002Y-71188528D01*
X138245725Y-71468010D01*
X138202886Y-71825756D01*
X138151720Y-72272606D01*
X138090467Y-72819406D01*
X138017364Y-73476998D01*
X137930648Y-74256226D01*
X137927931Y-74280582D01*
X137787847Y-75536165D01*
X128010271Y-75536165D01*
X128048234Y-75446386D01*
X128094548Y-75280452D01*
X128136371Y-75057151D01*
X128179072Y-74752205D01*
X128228020Y-74341334D01*
X128234578Y-74283677D01*
X128289391Y-73802631D01*
X128353151Y-73246923D01*
X128419167Y-72674654D01*
X128480747Y-72143929D01*
X128501296Y-71967769D01*
X128640473Y-70776855D01*
X128428815Y-70509615D01*
X128217158Y-70242376D01*
X127999162Y-70453666D01*
X127917807Y-70535989D01*
X127855424Y-70617297D01*
X127807334Y-70717774D01*
X127768852Y-70857606D01*
X127735299Y-71056979D01*
X127701992Y-71336079D01*
X127664249Y-71715091D01*
X127635328Y-72022368D01*
X127609050Y-72300712D01*
X127573020Y-72678568D01*
X127530453Y-73122396D01*
X127484568Y-73598655D01*
X127438581Y-74073803D01*
X127435310Y-74107513D01*
X127297792Y-75524236D01*
X123820587Y-75524236D01*
X123825419Y-75520123D01*
X123862045Y-75415564D01*
X123890901Y-75226026D01*
X123913815Y-75014686D01*
X123934373Y-74791545D01*
X123941075Y-74605466D01*
X123929068Y-74428356D01*
X123893500Y-74232119D01*
X123829517Y-73988664D01*
X123732268Y-73669896D01*
X123622100Y-73325789D01*
X123532261Y-73044187D01*
X123422732Y-72696234D01*
X123305105Y-72319254D01*
X123190971Y-71950566D01*
X123091921Y-71627495D01*
X123019546Y-71387360D01*
X123009696Y-71353947D01*
X122882522Y-71058242D01*
X122710360Y-70864227D01*
X122506826Y-70786593D01*
X122483044Y-70785789D01*
X122389279Y-70792370D01*
X122331884Y-70831117D01*
X122297752Y-70930542D01*
X122273774Y-71119154D01*
X122260239Y-71270394D01*
X122243908Y-71585580D01*
X122072759Y-71585580D01*
X122085915Y-71459875D01*
X122115983Y-71185782D01*
X122124248Y-71114399D01*
X122142416Y-70878186D01*
X122120510Y-70712269D01*
X122047402Y-70556429D01*
X122010134Y-70496937D01*
X121872209Y-70319769D01*
X121748831Y-70265203D01*
X121610350Y-70330818D01*
X121482140Y-70453795D01*
X121425727Y-70513811D01*
X121380098Y-70569684D01*
X121342646Y-70636422D01*
X121310765Y-70729036D01*
X121281848Y-70862536D01*
X121253289Y-71051931D01*
X121222482Y-71312232D01*
X121186821Y-71658448D01*
X121143700Y-72105589D01*
X121090511Y-72668665D01*
X121082111Y-72757631D01*
X121037078Y-73229346D01*
X120990887Y-73704462D01*
X120946877Y-74149258D01*
X120908386Y-74530016D01*
X120878751Y-74813013D01*
X120877599Y-74823648D01*
X120846363Y-75131377D01*
X120834514Y-75342451D01*
X117589385Y-75342451D01*
X117614035Y-75191878D01*
X117643928Y-74968540D01*
X117678345Y-74676086D01*
X117719037Y-74303086D01*
X117767753Y-73838107D01*
X117826243Y-73269720D01*
X117896257Y-72586493D01*
X117942968Y-72131802D01*
X118083048Y-70770709D01*
X117909264Y-70508104D01*
X117735481Y-70245499D01*
X117542314Y-70398670D01*
X117483459Y-70441693D01*
X117434225Y-70476200D01*
X117392625Y-70513378D01*
X117356669Y-70564411D01*
X117324369Y-70640488D01*
X117293737Y-70752793D01*
X117262784Y-70912512D01*
X117229522Y-71130833D01*
X117191962Y-71418940D01*
X117148116Y-71788019D01*
X117095995Y-72249258D01*
X117033611Y-72813842D01*
X116958976Y-73492957D01*
X116904618Y-73986016D01*
X116731928Y-75548612D01*
X111025887Y-75548612D01*
X111057089Y-75477322D01*
X111099633Y-75331128D01*
X111137329Y-75135139D01*
X111174503Y-74867587D01*
X111215481Y-74506701D01*
X111255480Y-74120705D01*
X111306294Y-73621413D01*
X111361973Y-73076533D01*
X111417500Y-72535026D01*
X111467859Y-72045853D01*
X111495356Y-71779990D01*
X111603664Y-70735508D01*
X111447226Y-70494107D01*
X111302754Y-70315461D01*
X111173984Y-70266068D01*
X111044587Y-70345394D01*
X110944633Y-70477621D01*
X110899917Y-70553485D01*
X110861410Y-70640777D01*
X110826942Y-70753967D01*
X110794338Y-70907527D01*
X110761428Y-71115928D01*
X110726038Y-71393642D01*
X110685997Y-71755139D01*
X110639131Y-72214891D01*
X110583270Y-72787370D01*
X110557224Y-73058421D01*
X110515558Y-73492024D01*
X110471366Y-73949968D01*
X110429379Y-74383359D01*
X110394325Y-74743301D01*
X110388026Y-74807652D01*
X110358525Y-75129647D01*
X110346660Y-75352134D01*
X107059161Y-75352134D01*
X107312944Y-73131736D01*
X107582332Y-70774802D01*
X107451128Y-70590543D01*
X107304147Y-70400236D01*
X107192970Y-70316746D01*
X107085628Y-70331655D01*
X106950156Y-70436548D01*
X106931591Y-70453754D01*
X106869741Y-70510394D01*
X106819931Y-70561669D01*
X106779446Y-70622439D01*
X106745568Y-70707565D01*
X106715584Y-70831906D01*
X106686775Y-71010323D01*
X106656428Y-71257675D01*
X106621825Y-71588823D01*
X106580252Y-72018626D01*
X106528992Y-72561945D01*
X106510532Y-72757631D01*
X106465499Y-73229346D01*
X106419308Y-73704462D01*
X106375298Y-74149258D01*
X106336807Y-74530016D01*
X106307172Y-74813013D01*
X106306020Y-74823648D01*
X106274784Y-75131377D01*
X106262936Y-75342451D01*
X102819030Y-75342451D01*
X102835575Y-75239690D01*
X102861207Y-75013319D01*
X102881428Y-74808917D01*
X102889913Y-74636470D01*
X102882117Y-74471997D01*
X102853498Y-74291516D01*
X102799512Y-74071044D01*
X102715615Y-73786601D01*
X102597263Y-73414204D01*
X102503494Y-73125263D01*
X102432282Y-72901322D01*
X102337636Y-72596794D01*
X102234262Y-72259220D01*
X102172719Y-72055789D01*
X102037751Y-71625508D01*
X101923201Y-71307836D01*
X101820044Y-71084976D01*
X101719257Y-70939136D01*
X101611817Y-70852520D01*
X101548208Y-70824232D01*
X101408023Y-70792314D01*
X101313824Y-70826357D01*
X101253041Y-70945224D01*
X101213102Y-71167778D01*
X101194221Y-71355405D01*
X101182537Y-71516897D01*
X101181639Y-71661283D01*
X101010918Y-71661283D01*
X101012726Y-71642562D01*
X101038892Y-71342332D01*
X101054775Y-71113303D01*
X101060986Y-70943111D01*
X101058137Y-70819391D01*
X101046839Y-70729782D01*
X101027703Y-70661920D01*
X101001341Y-70603441D01*
X100968363Y-70541982D01*
X100955436Y-70517603D01*
X100855192Y-70356745D01*
X100764368Y-70261868D01*
X100736100Y-70251052D01*
X100644252Y-70295873D01*
X100507169Y-70408792D01*
X100446897Y-70468289D01*
X100387553Y-70530688D01*
X100338695Y-70591212D01*
X100297862Y-70663995D01*
X100262595Y-70763174D01*
X100230433Y-70902883D01*
X100198918Y-71097257D01*
X100165589Y-71360432D01*
X100127986Y-71706543D01*
X100083651Y-72149725D01*
X100030122Y-72704112D01*
X99996172Y-73058421D01*
X99954505Y-73492024D01*
X99910313Y-73949968D01*
X99868326Y-74383359D01*
X99833273Y-74743301D01*
X99826973Y-74807652D01*
X99797472Y-75129647D01*
X99785607Y-75352134D01*
X97421053Y-75352134D01*
X97421053Y-70037205D01*
X111459860Y-70037205D01*
X111803534Y-70652105D01*
X116900466Y-70652105D01*
X117187075Y-70370819D01*
X117366315Y-70178594D01*
X117444001Y-70037205D01*
X143009334Y-70037205D01*
X143353008Y-70652105D01*
X148546313Y-70652105D01*
X148784735Y-70361142D01*
X148939461Y-70155862D01*
X148996467Y-70026122D01*
X164140749Y-70026122D01*
X164180036Y-70203282D01*
X164275466Y-70392346D01*
X164421459Y-70652105D01*
X169598078Y-70652105D01*
X169872035Y-70324893D01*
X170131989Y-70014406D01*
X174702124Y-70014406D01*
X174733584Y-70186284D01*
X174825569Y-70387399D01*
X174960612Y-70652105D01*
X180076341Y-70652105D01*
X180397601Y-70325940D01*
X180718861Y-69999776D01*
X180536601Y-69724361D01*
X180354340Y-69448947D01*
X175113059Y-69448947D01*
X174901793Y-69681113D01*
X174756450Y-69862179D01*
X174702124Y-70014406D01*
X170131989Y-70014406D01*
X170145992Y-69997682D01*
X169999542Y-69723315D01*
X169853093Y-69448947D01*
X164552006Y-69448947D01*
X164340740Y-69681113D01*
X164192870Y-69867832D01*
X164140749Y-70026122D01*
X148996467Y-70026122D01*
X149007767Y-70000407D01*
X148998085Y-69850395D01*
X148918848Y-69661446D01*
X148917999Y-69659743D01*
X148812840Y-69448947D01*
X143491367Y-69448947D01*
X143250350Y-69743076D01*
X143009334Y-70037205D01*
X117444001Y-70037205D01*
X117448516Y-70028988D01*
X117442663Y-69883198D01*
X117357744Y-69702422D01*
X117346403Y-69682894D01*
X117228894Y-69482368D01*
X111943138Y-69447428D01*
X111701499Y-69742317D01*
X111459860Y-70037205D01*
X97421053Y-70037205D01*
X97421053Y-67844737D01*
X182978947Y-67844737D01*
X182978947Y-84555263D01*
%TD*%
D11*
X185585779Y-68369027D02*
X186018241Y-68425961D01*
X186444095Y-68520371D01*
X186860101Y-68651537D01*
X187263091Y-68818461D01*
X187650000Y-69019873D01*
X188017882Y-69254240D01*
X188363938Y-69519778D01*
X188685534Y-69814466D01*
X188980222Y-70136062D01*
X189245760Y-70482118D01*
X189480127Y-70850000D01*
X189681539Y-71236909D01*
X189848463Y-71639899D01*
X189979629Y-72055905D01*
X190074039Y-72481759D01*
X190130973Y-72914221D01*
X190150000Y-73350000D01*
X190150000Y-83350000D01*
X190130973Y-83785779D01*
X190074039Y-84218241D01*
X189979629Y-84644095D01*
X189848463Y-85060101D01*
X189681539Y-85463091D01*
X189480127Y-85850000D01*
X189245760Y-86217882D01*
X188980222Y-86563938D01*
X188685534Y-86885534D01*
X188363938Y-87180222D01*
X188017882Y-87445760D01*
X187650000Y-87680127D01*
X187263091Y-87881539D01*
X186860101Y-88048463D01*
X186444095Y-88179629D01*
X186018241Y-88274039D01*
X185585779Y-88330973D01*
X185150000Y-88350000D01*
X148769827Y-88350000D01*
X148752551Y-84376418D01*
X181425581Y-84226999D01*
X181450346Y-84224445D01*
X181474137Y-84217109D01*
X181496040Y-84205273D01*
X181515212Y-84189391D01*
X181530918Y-84170074D01*
X181542554Y-84148064D01*
X181549672Y-84124207D01*
X181551995Y-84101121D01*
X181690976Y-68350000D01*
X185150000Y-68350000D01*
X185585779Y-68369027D01*
D12*
G36*
X185585779Y-68369027D02*
G01*
X186018241Y-68425961D01*
X186444095Y-68520371D01*
X186860101Y-68651537D01*
X187263091Y-68818461D01*
X187650000Y-69019873D01*
X188017882Y-69254240D01*
X188363938Y-69519778D01*
X188685534Y-69814466D01*
X188980222Y-70136062D01*
X189245760Y-70482118D01*
X189480127Y-70850000D01*
X189681539Y-71236909D01*
X189848463Y-71639899D01*
X189979629Y-72055905D01*
X190074039Y-72481759D01*
X190130973Y-72914221D01*
X190150000Y-73350000D01*
X190150000Y-83350000D01*
X190130973Y-83785779D01*
X190074039Y-84218241D01*
X189979629Y-84644095D01*
X189848463Y-85060101D01*
X189681539Y-85463091D01*
X189480127Y-85850000D01*
X189245760Y-86217882D01*
X188980222Y-86563938D01*
X188685534Y-86885534D01*
X188363938Y-87180222D01*
X188017882Y-87445760D01*
X187650000Y-87680127D01*
X187263091Y-87881539D01*
X186860101Y-88048463D01*
X186444095Y-88179629D01*
X186018241Y-88274039D01*
X185585779Y-88330973D01*
X185150000Y-88350000D01*
X148769827Y-88350000D01*
X148752551Y-84376418D01*
X181425581Y-84226999D01*
X181450346Y-84224445D01*
X181474137Y-84217109D01*
X181496040Y-84205273D01*
X181515212Y-84189391D01*
X181530918Y-84170074D01*
X181542554Y-84148064D01*
X181549672Y-84124207D01*
X181551995Y-84101121D01*
X181690976Y-68350000D01*
X185150000Y-68350000D01*
X185585779Y-68369027D01*
G37*
D11*
X98448000Y-83675000D02*
X98450440Y-83699776D01*
X98457667Y-83723601D01*
X98469403Y-83745557D01*
X98485197Y-83764803D01*
X98504443Y-83780597D01*
X98526399Y-83792333D01*
X98550224Y-83799560D01*
X98572978Y-83801984D01*
X131423000Y-84324994D01*
X131423000Y-88350000D01*
X95150000Y-88350000D01*
X94714221Y-88330973D01*
X94281759Y-88274039D01*
X93855905Y-88179629D01*
X93439899Y-88048463D01*
X93036909Y-87881539D01*
X92650000Y-87680127D01*
X92282118Y-87445760D01*
X91936062Y-87180222D01*
X91614466Y-86885534D01*
X91319778Y-86563938D01*
X91054240Y-86217882D01*
X90819873Y-85850000D01*
X90618461Y-85463091D01*
X90451537Y-85060101D01*
X90320371Y-84644095D01*
X90225961Y-84218241D01*
X90169027Y-83785779D01*
X90150000Y-83350000D01*
X90150000Y-73350000D01*
X90169027Y-72914221D01*
X90225961Y-72481759D01*
X90320371Y-72055905D01*
X90451537Y-71639899D01*
X90618461Y-71236909D01*
X90819873Y-70850000D01*
X91054240Y-70482118D01*
X91319778Y-70136062D01*
X91614466Y-69814466D01*
X91936062Y-69519778D01*
X92282118Y-69254240D01*
X92650000Y-69019873D01*
X93036909Y-68818461D01*
X93439899Y-68651537D01*
X93855905Y-68520371D01*
X94281759Y-68425961D01*
X94714221Y-68369027D01*
X95150000Y-68350000D01*
X98448000Y-68350000D01*
X98448000Y-83675000D01*
D12*
G36*
X98448000Y-83675000D02*
G01*
X98450440Y-83699776D01*
X98457667Y-83723601D01*
X98469403Y-83745557D01*
X98485197Y-83764803D01*
X98504443Y-83780597D01*
X98526399Y-83792333D01*
X98550224Y-83799560D01*
X98572978Y-83801984D01*
X131423000Y-84324994D01*
X131423000Y-88350000D01*
X95150000Y-88350000D01*
X94714221Y-88330973D01*
X94281759Y-88274039D01*
X93855905Y-88179629D01*
X93439899Y-88048463D01*
X93036909Y-87881539D01*
X92650000Y-87680127D01*
X92282118Y-87445760D01*
X91936062Y-87180222D01*
X91614466Y-86885534D01*
X91319778Y-86563938D01*
X91054240Y-86217882D01*
X90819873Y-85850000D01*
X90618461Y-85463091D01*
X90451537Y-85060101D01*
X90320371Y-84644095D01*
X90225961Y-84218241D01*
X90169027Y-83785779D01*
X90150000Y-83350000D01*
X90150000Y-73350000D01*
X90169027Y-72914221D01*
X90225961Y-72481759D01*
X90320371Y-72055905D01*
X90451537Y-71639899D01*
X90618461Y-71236909D01*
X90819873Y-70850000D01*
X91054240Y-70482118D01*
X91319778Y-70136062D01*
X91614466Y-69814466D01*
X91936062Y-69519778D01*
X92282118Y-69254240D01*
X92650000Y-69019873D01*
X93036909Y-68818461D01*
X93439899Y-68651537D01*
X93855905Y-68520371D01*
X94281759Y-68425961D01*
X94714221Y-68369027D01*
X95150000Y-68350000D01*
X98448000Y-68350000D01*
X98448000Y-83675000D01*
G37*
M02*
