%TF.GenerationSoftware,KiCad,Pcbnew,(5.1.9-0-10_14)*%
%TF.CreationDate,2021-09-09T14:55:03-05:00*%
%TF.ProjectId,nand7400-plaque,6e616e64-3734-4303-902d-706c61717565,rev?*%
%TF.SameCoordinates,Original*%
%TF.FileFunction,Legend,Top*%
%TF.FilePolarity,Positive*%
%FSLAX46Y46*%
G04 Gerber Fmt 4.6, Leading zero omitted, Abs format (unit mm)*
G04 Created by KiCad (PCBNEW (5.1.9-0-10_14)) date 2021-09-09 14:55:03*
%MOMM*%
%LPD*%
G01*
G04 APERTURE LIST*
%ADD10C,0.120000*%
G04 APERTURE END LIST*
D10*
%TO.C,REF\u002A\u002A*%
X148210000Y-87110000D02*
X132090000Y-87110000D01*
X132090000Y-87110000D02*
X132090000Y-88430000D01*
X132090000Y-88430000D02*
X148210000Y-88430000D01*
X148210000Y-88430000D02*
X148210000Y-87110000D01*
X147860000Y-88430000D02*
X147860000Y-90430000D01*
X147860000Y-90430000D02*
X147440000Y-90430000D01*
X147440000Y-90430000D02*
X147440000Y-88430000D01*
X147800000Y-88430000D02*
X147800000Y-90430000D01*
X147680000Y-88430000D02*
X147680000Y-90430000D01*
X147560000Y-88430000D02*
X147560000Y-90430000D01*
X147860000Y-86922016D02*
X147860000Y-87110000D01*
X147440000Y-86922016D02*
X147440000Y-87110000D01*
X147150000Y-87110000D02*
X147150000Y-88430000D01*
X146860000Y-88430000D02*
X146860000Y-90430000D01*
X146860000Y-90430000D02*
X146440000Y-90430000D01*
X146440000Y-90430000D02*
X146440000Y-88430000D01*
X146860000Y-86922016D02*
X146860000Y-87110000D01*
X146440000Y-86922016D02*
X146440000Y-87110000D01*
X146150000Y-87110000D02*
X146150000Y-88430000D01*
X145860000Y-88430000D02*
X145860000Y-90430000D01*
X145860000Y-90430000D02*
X145440000Y-90430000D01*
X145440000Y-90430000D02*
X145440000Y-88430000D01*
X145860000Y-86922016D02*
X145860000Y-87110000D01*
X145440000Y-86922016D02*
X145440000Y-87110000D01*
X145150000Y-87110000D02*
X145150000Y-88430000D01*
X144860000Y-88430000D02*
X144860000Y-90430000D01*
X144860000Y-90430000D02*
X144440000Y-90430000D01*
X144440000Y-90430000D02*
X144440000Y-88430000D01*
X144860000Y-86922016D02*
X144860000Y-87110000D01*
X144440000Y-86922016D02*
X144440000Y-87110000D01*
X144150000Y-87110000D02*
X144150000Y-88430000D01*
X143860000Y-88430000D02*
X143860000Y-90430000D01*
X143860000Y-90430000D02*
X143440000Y-90430000D01*
X143440000Y-90430000D02*
X143440000Y-88430000D01*
X143860000Y-86922016D02*
X143860000Y-87110000D01*
X143440000Y-86922016D02*
X143440000Y-87110000D01*
X143150000Y-87110000D02*
X143150000Y-88430000D01*
X142860000Y-88430000D02*
X142860000Y-90430000D01*
X142860000Y-90430000D02*
X142440000Y-90430000D01*
X142440000Y-90430000D02*
X142440000Y-88430000D01*
X142860000Y-86922016D02*
X142860000Y-87110000D01*
X142440000Y-86922016D02*
X142440000Y-87110000D01*
X142150000Y-87110000D02*
X142150000Y-88430000D01*
X141860000Y-88430000D02*
X141860000Y-90430000D01*
X141860000Y-90430000D02*
X141440000Y-90430000D01*
X141440000Y-90430000D02*
X141440000Y-88430000D01*
X141860000Y-86922016D02*
X141860000Y-87110000D01*
X141440000Y-86922016D02*
X141440000Y-87110000D01*
X141150000Y-87110000D02*
X141150000Y-88430000D01*
X140860000Y-88430000D02*
X140860000Y-90430000D01*
X140860000Y-90430000D02*
X140440000Y-90430000D01*
X140440000Y-90430000D02*
X140440000Y-88430000D01*
X140860000Y-86922016D02*
X140860000Y-87110000D01*
X140440000Y-86922016D02*
X140440000Y-87110000D01*
X140150000Y-87110000D02*
X140150000Y-88430000D01*
X139860000Y-88430000D02*
X139860000Y-90430000D01*
X139860000Y-90430000D02*
X139440000Y-90430000D01*
X139440000Y-90430000D02*
X139440000Y-88430000D01*
X139860000Y-86922016D02*
X139860000Y-87110000D01*
X139440000Y-86922016D02*
X139440000Y-87110000D01*
X139150000Y-87110000D02*
X139150000Y-88430000D01*
X138860000Y-88430000D02*
X138860000Y-90430000D01*
X138860000Y-90430000D02*
X138440000Y-90430000D01*
X138440000Y-90430000D02*
X138440000Y-88430000D01*
X138860000Y-86922016D02*
X138860000Y-87110000D01*
X138440000Y-86922016D02*
X138440000Y-87110000D01*
X138150000Y-87110000D02*
X138150000Y-88430000D01*
X137860000Y-88430000D02*
X137860000Y-90430000D01*
X137860000Y-90430000D02*
X137440000Y-90430000D01*
X137440000Y-90430000D02*
X137440000Y-88430000D01*
X137860000Y-86922016D02*
X137860000Y-87110000D01*
X137440000Y-86922016D02*
X137440000Y-87110000D01*
X137150000Y-87110000D02*
X137150000Y-88430000D01*
X136860000Y-88430000D02*
X136860000Y-90430000D01*
X136860000Y-90430000D02*
X136440000Y-90430000D01*
X136440000Y-90430000D02*
X136440000Y-88430000D01*
X136860000Y-86922016D02*
X136860000Y-87110000D01*
X136440000Y-86922016D02*
X136440000Y-87110000D01*
X136150000Y-87110000D02*
X136150000Y-88430000D01*
X135860000Y-88430000D02*
X135860000Y-90430000D01*
X135860000Y-90430000D02*
X135440000Y-90430000D01*
X135440000Y-90430000D02*
X135440000Y-88430000D01*
X135860000Y-86922016D02*
X135860000Y-87110000D01*
X135440000Y-86922016D02*
X135440000Y-87110000D01*
X135150000Y-87110000D02*
X135150000Y-88430000D01*
X134860000Y-88430000D02*
X134860000Y-90430000D01*
X134860000Y-90430000D02*
X134440000Y-90430000D01*
X134440000Y-90430000D02*
X134440000Y-88430000D01*
X134860000Y-86922016D02*
X134860000Y-87110000D01*
X134440000Y-86922016D02*
X134440000Y-87110000D01*
X134150000Y-87110000D02*
X134150000Y-88430000D01*
X133860000Y-88430000D02*
X133860000Y-90430000D01*
X133860000Y-90430000D02*
X133440000Y-90430000D01*
X133440000Y-90430000D02*
X133440000Y-88430000D01*
X133860000Y-86922016D02*
X133860000Y-87110000D01*
X133440000Y-86922016D02*
X133440000Y-87110000D01*
X133150000Y-87110000D02*
X133150000Y-88430000D01*
X132860000Y-88430000D02*
X132860000Y-90430000D01*
X132860000Y-90430000D02*
X132440000Y-90430000D01*
X132440000Y-90430000D02*
X132440000Y-88430000D01*
X132860000Y-86922016D02*
X132860000Y-87110000D01*
X132440000Y-86922016D02*
X132440000Y-87110000D01*
X147650000Y-84585000D02*
X148335000Y-84585000D01*
X148335000Y-84585000D02*
X148335000Y-85270000D01*
%TD*%
M02*
