M48
; DRILL file {KiCad (5.1.9-0-10_14)} date Thursday, September 09, 2021 at 03:20:00 PM
; FORMAT={-:-/ absolute / inch / decimal}
; #@! TF.CreationDate,2021-09-09T15:20:00-05:00
; #@! TF.GenerationSoftware,Kicad,Pcbnew,(5.1.9-0-10_14)
; #@! TF.FileFunction,Plated,1,2,PTH
FMAT,2
INCH
T1C0.0197
T2C0.1260
%
G90
G05
T1
X5.2224Y-3.3571
X5.2224Y-3.3965
X5.2618Y-3.3571
X5.2618Y-3.3965
X5.3012Y-3.3571
X5.3012Y-3.3965
X5.3406Y-3.3571
X5.3406Y-3.3965
X5.3799Y-3.3571
X5.3799Y-3.3965
X5.4193Y-3.3571
X5.4193Y-3.3965
X5.4587Y-3.3571
X5.4587Y-3.3965
X5.498Y-3.3571
X5.498Y-3.3965
X5.5374Y-3.3571
X5.5374Y-3.3965
X5.5768Y-3.3571
X5.5768Y-3.3965
X5.6161Y-3.3571
X5.6161Y-3.3965
X5.6555Y-3.3571
X5.6555Y-3.3965
X5.6949Y-3.3571
X5.6949Y-3.3965
X5.7343Y-3.3571
X5.7343Y-3.3965
X5.7736Y-3.3571
X5.7736Y-3.3965
X5.813Y-3.3571
X5.813Y-3.3965
T2
X3.7461Y-2.8878
X7.2894Y-2.8878
T0
M30
