M48
; DRILL file {KiCad (5.1.9-0-10_14)} date Wednesday, September 15, 2021 at 11:04:55 AM
; FORMAT={-:-/ absolute / inch / decimal}
; #@! TF.CreationDate,2021-09-15T11:04:55-05:00
; #@! TF.GenerationSoftware,Kicad,Pcbnew,(5.1.9-0-10_14)
; #@! TF.FileFunction,Plated,1,2,PTH
FMAT,2
INCH
T1C0.0394
T2C0.1260
%
G90
G05
T1
X4.7677Y-3.2199
X4.7677Y-3.3199
X4.8677Y-3.2199
X4.8677Y-3.3199
X4.9677Y-3.2199
X4.9677Y-3.3199
X5.0677Y-3.2199
X5.0677Y-3.3199
X5.1677Y-3.2199
X5.1677Y-3.3199
X5.2677Y-3.2199
X5.2677Y-3.3199
X5.3677Y-3.2199
X5.3677Y-3.3199
X5.4677Y-3.2199
X5.4677Y-3.3199
X5.5677Y-3.2199
X5.5677Y-3.3199
X5.6677Y-3.2199
X5.6677Y-3.3199
X5.7677Y-3.2199
X5.7677Y-3.3199
X5.8677Y-3.2199
X5.8677Y-3.3199
X5.9677Y-3.2199
X5.9677Y-3.3199
X6.0677Y-3.2199
X6.0677Y-3.3199
X6.1677Y-3.2199
X6.1677Y-3.3199
X6.2677Y-3.2199
X6.2677Y-3.3199
T2
X3.7461Y-2.4941
X7.2894Y-2.4941
T0
M30
